<svg id="_0020_checklist" xmlns="http://www.w3.org/2000/svg" xmlns:xlink="http://www.w3.org/1999/xlink" viewBox="0 0 500 500" data-imageid="checklist-43" imageName="Checklist" class="illustrations_image" style="width: 131px;"><defs><style>.cls-1_checklist-43{fill:url(#linear-gradient);opacity:.52;}.cls-1_checklist-43,.cls-2_checklist-43,.cls-3_checklist-43,.cls-4_checklist-43,.cls-5_checklist-43,.cls-6_checklist-43,.cls-7_checklist-43,.cls-8_checklist-43,.cls-9_checklist-43,.cls-10_checklist-43,.cls-11_checklist-43,.cls-12_checklist-43,.cls-13_checklist-43,.cls-14_checklist-43,.cls-15_checklist-43,.cls-16_checklist-43,.cls-17_checklist-43{stroke-width:0px;}.cls-1_checklist-43,.cls-2_checklist-43,.cls-5_checklist-43{isolation:isolate;}.cls-2_checklist-43{opacity:.18;}.cls-2_checklist-43,.cls-17_checklist-43{fill:#68e1fd;}.cls-3_checklist-43{fill:url(#linear-gradient-11-checklist-43);}.cls-4_checklist-43{fill:url(#linear-gradient-10-checklist-43);}.cls-5_checklist-43{fill:#fff;opacity:.34;}.cls-6_checklist-43{fill:url(#linear-gradient-4-checklist-43);}.cls-7_checklist-43{fill:url(#linear-gradient-2-checklist-43);}.cls-8_checklist-43{fill:url(#linear-gradient-3-checklist-43);}.cls-9_checklist-43{fill:url(#linear-gradient-8-checklist-43);}.cls-10_checklist-43{fill:url(#linear-gradient-9-checklist-43);}.cls-11_checklist-43{fill:url(#linear-gradient-7-checklist-43);}.cls-12_checklist-43{fill:url(#linear-gradient-5-checklist-43);}.cls-13_checklist-43{fill:url(#linear-gradient-6-checklist-43);}.cls-14_checklist-43{fill:#231f20;}.cls-15_checklist-43{fill:#302f47;}.cls-16_checklist-43{fill:#ffaa71;}</style><linearGradient id="linear-gradient-checklist-43" x1="-93.57" y1="173.73" x2="-104.91" y2="-210.24" gradientTransform="translate(341.83 532.72) scale(1 -1)" gradientUnits="userSpaceOnUse"><stop offset="0" stop-color="#000" stop-opacity="0"/><stop offset=".98" stop-color="#000"/></linearGradient><linearGradient id="linear-gradient-2-checklist-43" x1="4.51" y1="382.78" x2="-315.06" y2="125.79" xlink:href="#linear-gradient-checklist-43"/><linearGradient id="linear-gradient-3-checklist-43" x1="63.55" y1="553.96" x2="16.16" y2="-341.56" xlink:href="#linear-gradient-checklist-43"/><linearGradient id="linear-gradient-4-checklist-43" x1="66.55" y1="553.8" x2="19.16" y2="-341.72" xlink:href="#linear-gradient-checklist-43"/><linearGradient id="linear-gradient-5-checklist-43" x1="72.27" y1="553.5" x2="24.89" y2="-342.02" xlink:href="#linear-gradient-checklist-43"/><linearGradient id="linear-gradient-6-checklist-43" x1="75.05" y1="553.35" x2="27.66" y2="-342.17" xlink:href="#linear-gradient-checklist-43"/><linearGradient id="linear-gradient-7-checklist-43" x1="77.77" y1="553.21" x2="30.37" y2="-342.31" xlink:href="#linear-gradient-checklist-43"/><linearGradient id="linear-gradient-8-checklist-43" x1="-220.67" y1="333.69" x2="-146.96" y2="305.88" xlink:href="#linear-gradient-checklist-43"/><linearGradient id="linear-gradient-9-checklist-43" x1="-27.59" y1="400.26" x2="-81.87" y2="298.19" xlink:href="#linear-gradient-checklist-43"/><linearGradient id="linear-gradient-10-checklist-43" x1="-153.34" y1="318.6" x2="-473.52" y2="365.39" xlink:href="#linear-gradient-checklist-43"/><linearGradient id="linear-gradient-11-checklist-43" x1="-116.55" y1="342.23" x2="-131.13" y2="234.75" xlink:href="#linear-gradient-checklist-43"/></defs><path id="background_checklist-43" class="cls-2_checklist-43 targetColor" d="M193.43,116.01c-31.02,18.82-70.15,23.22-97.82,46.69-9.77,8.29-17.65,18.65-24,29.77-20.64,36.18-24.88,81.33-11.31,120.73,13.57,39.39,44.72,72.35,83.28,88.13,18.44,7.55,38.21,11.26,57.97,13.86,36.43,4.78,73.24,5.89,109.89,3.31,23.17-1.63,47.63-5.32,65.45-20.2,11.88-9.93,19.62-23.93,25.61-38.21,16.18-38.82,21.18-81.39,14.44-122.91-4.12-25.11-12.64-49.69-26.68-70.9-23.62-35.71-60.79-59.14-98.88-76.96-14.95-6.96-34.06-19.12-50.74-12.08-17.53,7.41-30.5,28.66-47.21,38.78Z" style="fill: rgb(104, 173, 253);"/><path id="shadow_checklist-43" class="cls-1_checklist-43" d="M62.63,417.06c-3.27.63-6.71,1.35-9.19,3.6-4.73,4.24-3.76,12.39.4,17.19s10.49,7.04,16.54,8.88c50.58,15.21,104.29,15.32,157.1,15.3,16.13,0,32.69-.09,47.76-5.85,10.44-3.99,19.71-10.57,30.01-14.93,38.66-16.4,83.89.61,124.77-9.03,4.8-1.13,10.13-3.19,11.8-7.83,3.37-9.35-10.26-15.07-20.21-15.56-43.64-2.16-87.37-1.95-130.98.62-34.85,2.05-66.6-8.29-101.57-6.88-42.44,1.7-84.69,6.55-126.42,14.5Z"/><g id="list_board_checklist-43"><path class="cls-17_checklist-43 targetColor" d="M261.62,408.76h-11.58c-8.24,0-14.92-6.67-14.95-14.9V55.87c0-8.25,6.69-14.94,14.95-14.95h11.58c-8.25,0-14.95,6.69-14.95,14.95v337.99c.02,8.24,6.71,14.91,14.95,14.9Z" style="fill: rgb(104, 173, 253);"/><path class="cls-7_checklist-43" d="M261.62,408.76h-11.58c-8.24,0-14.92-6.67-14.95-14.9V55.87c0-8.25,6.69-14.94,14.95-14.95h11.58c-8.25,0-14.95,6.69-14.95,14.95v337.99c.02,8.24,6.71,14.91,14.95,14.9Z"/><rect class="cls-17_checklist-43 targetColor" x="246.66" y="40.93" width="205.44" height="367.84" rx="14.95" ry="14.95" style="fill: rgb(104, 173, 253);"/><path class="cls-5_checklist-43" d="M351.49,82.38h-88.51c-2.89,0-5.24-2.34-5.24-5.24h0c0-2.9,2.34-5.24,5.24-5.24h88.51c2.89,0,5.24,2.34,5.24,5.24h0c0,2.9-2.35,5.24-5.24,5.24h0Z"/><path class="cls-5_checklist-43" d="M351.49,135.81h-88.51c-2.88,0-5.22-2.32-5.24-5.2h0c0-2.89,2.34-5.24,5.23-5.24,0,0,0,0,0,0h88.51c2.9,0,5.24,2.35,5.24,5.24h0c-.02,2.88-2.36,5.2-5.24,5.2Z"/><path class="cls-5_checklist-43" d="M351.49,189.25h-88.51c-2.89,0-5.24-2.34-5.24-5.24h0c0-2.89,2.34-5.24,5.23-5.24h88.52c2.9,0,5.24,2.35,5.24,5.24h0c0,2.89-2.35,5.24-5.24,5.24Z"/><path class="cls-5_checklist-43" d="M351.49,242.69h-88.51c-2.89,0-5.24-2.35-5.24-5.24h0c0-2.89,2.34-5.24,5.23-5.24h88.52c2.9,0,5.24,2.35,5.24,5.24h0c0,2.89-2.35,5.24-5.24,5.24Z"/><path class="cls-5_checklist-43" d="M351.49,296.12h-88.51c-2.89,0-5.24-2.35-5.24-5.24h0c0-2.89,2.34-5.24,5.23-5.24h88.52c2.9,0,5.24,2.35,5.24,5.24h0c0,2.89-2.35,5.24-5.24,5.24Z"/><path class="cls-5_checklist-43" d="M351.49,349.55h-88.51c-2.89,0-5.24-2.34-5.24-5.24h0c0-2.9,2.34-5.25,5.24-5.25h88.51c2.89,0,5.24,2.35,5.24,5.24h0c0,2.9-2.35,5.24-5.24,5.24h0Z"/><rect class="cls-5_checklist-43" x="378.78" y="58.25" width="38.16" height="33.37" rx="4.09" ry="4.09"/><rect class="cls-5_checklist-43" x="378.78" y="116.26" width="38.16" height="33.37" rx="4.09" ry="4.09"/><rect class="cls-5_checklist-43" x="378.78" y="168.88" width="38.16" height="33.37" rx="4.09" ry="4.09"/><rect class="cls-5_checklist-43" x="378.78" y="273.01" width="38.16" height="33.37" rx="4.09" ry="4.09"/><rect class="cls-5_checklist-43" x="378.78" y="220.75" width="38.16" height="33.37" rx="4.09" ry="4.09"/><rect class="cls-5_checklist-43" x="378.78" y="327.62" width="38.16" height="33.37" rx="4.09" ry="4.09"/><path class="cls-17_checklist-43 targetColor" d="M381.45,70.07l6.86,11.51c2.16,3.6,5.87,4.32,8.56,1.74l23.22-22.35s2.16-3.09-.14-5.47c-2.29-2.39-4.19.36-4.19.36l-20.57,19.77c-1.3,1.19-3.08.8-4.09-.91l-5.47-9.26c-1.03-1.73-2.93-1.89-4.06-.29h0c-.94,1.49-.99,3.38-.13,4.91Z" style="fill: rgb(104, 173, 253);"/><path class="cls-17_checklist-43 targetColor" d="M381.45,127.02l6.86,11.51c2.16,3.56,5.87,4.32,8.56,1.74l23.22-22.35s2.16-3.09-.14-5.47c-2.29-2.39-4.19.36-4.19.36l-20.57,19.77c-1.3,1.19-3.08.8-4.09-.91l-5.47-9.26c-1.04-1.75-2.93-1.91-4.06-.34h0c-.96,1.5-1.01,3.41-.13,4.96Z" style="fill: rgb(104, 173, 253);"/><path class="cls-17_checklist-43 targetColor" d="M381.45,235.52l6.86,11.51c2.16,3.56,5.87,4.32,8.56,1.74l23.22-22.36s2.16-3.09-.14-5.47c-2.29-2.39-4.19.36-4.19.36l-20.57,19.77c-1.3,1.19-3.08.79-4.09-.91l-5.47-9.26c-1.04-1.75-2.93-1.91-4.06-.34h0c-.96,1.5-1.01,3.41-.13,4.96Z" style="fill: rgb(104, 173, 253);"/><path class="cls-17_checklist-43 targetColor" d="M381.45,288.17l6.86,11.51c2.16,3.56,5.87,4.32,8.56,1.74l23.22-22.35s2.16-3.09-.14-5.48c-2.29-2.39-4.19.36-4.19.36l-20.57,19.77c-1.3,1.19-3.08.79-4.09-.91l-5.47-9.26c-1.04-1.75-2.93-1.91-4.06-.34h0c-.96,1.5-1.01,3.41-.13,4.96Z" style="fill: rgb(104, 173, 253);"/><path class="cls-17_checklist-43 targetColor" d="M381.45,339.45l6.86,11.51c2.16,3.6,5.87,4.32,8.56,1.75l23.22-22.36s2.16-3.09-.14-5.47-4.19.36-4.19.36l-20.57,19.77c-1.3,1.19-3.08.8-4.09-.91l-5.47-9.21c-1.04-1.75-2.93-1.91-4.06-.34h0c-.94,1.49-.99,3.37-.13,4.91Z" style="fill: rgb(104, 173, 253);"/><path class="cls-8_checklist-43" d="M381.45,70.07l6.86,11.51c2.16,3.6,5.87,4.32,8.56,1.74l23.22-22.35s2.16-3.09-.14-5.47c-2.29-2.39-4.19.36-4.19.36l-20.57,19.77c-1.3,1.19-3.08.8-4.09-.91l-5.47-9.26c-1.03-1.73-2.93-1.89-4.06-.29h0c-.94,1.49-.99,3.38-.13,4.91Z"/><path class="cls-6_checklist-43" d="M381.45,127.02l6.86,11.51c2.16,3.56,5.87,4.32,8.56,1.74l23.22-22.35s2.16-3.09-.14-5.47c-2.29-2.39-4.19.36-4.19.36l-20.57,19.77c-1.3,1.19-3.08.8-4.09-.91l-5.47-9.26c-1.04-1.75-2.93-1.91-4.06-.34h0c-.96,1.5-1.01,3.41-.13,4.96Z"/><path class="cls-12_checklist-43" d="M381.45,235.52l6.86,11.51c2.16,3.56,5.87,4.32,8.56,1.74l23.22-22.36s2.16-3.09-.14-5.47c-2.29-2.39-4.19.36-4.19.36l-20.57,19.77c-1.3,1.19-3.08.79-4.09-.91l-5.47-9.26c-1.04-1.75-2.93-1.91-4.06-.34h0c-.96,1.5-1.01,3.41-.13,4.96Z"/><path class="cls-13_checklist-43" d="M381.45,288.17l6.86,11.51c2.16,3.56,5.87,4.32,8.56,1.74l23.22-22.35s2.16-3.09-.14-5.48c-2.29-2.39-4.19.36-4.19.36l-20.57,19.77c-1.3,1.19-3.08.79-4.09-.91l-5.47-9.26c-1.04-1.75-2.93-1.91-4.06-.34h0c-.96,1.5-1.01,3.41-.13,4.96Z"/><path class="cls-11_checklist-43" d="M381.45,339.45l6.86,11.51c2.16,3.6,5.87,4.32,8.56,1.75l23.22-22.36s2.16-3.09-.14-5.47-4.19.36-4.19.36l-20.57,19.77c-1.3,1.19-3.08.8-4.09-.91l-5.47-9.21c-1.04-1.75-2.93-1.91-4.06-.34h0c-.94,1.49-.99,3.37-.13,4.91Z"/></g><g id="character_1_checklist-43"><path class="cls-17_checklist-43 targetColor" d="M152.81,157.29s-32.89,42.7-29.54,61.86c3.35,19.16,11.43,38.68,11.43,38.68l22.07-94.22-3.96-6.32Z" style="fill: rgb(104, 173, 253);"/><path class="cls-9_checklist-43" d="M152.81,157.29s-32.89,42.7-29.54,61.86c3.35,19.16,11.43,38.68,11.43,38.68l22.07-94.22-3.96-6.32Z"/><path class="cls-15_checklist-43" d="M137.48,269.82c6.22-11.96,36.52,13.81,40.34,26.61,3.83,12.8-21.06,57.77-33.98,71.65-12.92,13.88-36.86,26.3-52.16,30.61,0,0-5.39-7.19-4.32-10.15,1.08-2.96,32.78-26.07,35.65-40.03,2.87-13.96,8.24-66.73,14.46-78.7Z"/><path class="cls-17_checklist-43 targetColor" d="M283.68,158.47s-3.83-11.11-3.19-12.34,4.36-4.04,6.11-2.4c1.75,1.65,5.32,11.86,5.32,11.86l37.37-12.76s4.17-.65,3.73,3.91c-.44,4.56-40.65,20.54-40.65,20.54,0,0-3.27,3.35-8.7-8.83Z" style="fill: rgb(104, 173, 253);"/><path class="cls-10_checklist-43" d="M283.68,158.47s-3.83-11.11-3.19-12.34,4.36-4.04,6.11-2.4c1.75,1.65,5.32,11.86,5.32,11.86l37.37-12.76s4.17-.65,3.73,3.91c-.44,4.56-40.65,20.54-40.65,20.54,0,0-3.27,3.35-8.7-8.83Z"/><path class="cls-16_checklist-43" d="M194.23,95.42c.73.23,1.91,3.62,2.22,4.25,1.71,3.48,3.25,7.04,4.53,10.7,2.61,7.49,6.03,19.49-1.13,25.39-2.36,1.95-5.36,3.02-8.4,3.34-.69.07-1.4.11-1.99.47-.71.43-1.1,1.22-1.41,1.99-.94,2.29-1.55,4.71-1.82,7.17-.28,2.62-.37,5.11-.36,7.76-3.11-.39-6.35-.83-8.92-2.62-.98-.68-1.83-1.53-2.83-2.18-3.11-2.02-7.64-2.12-9.59-5.27,4.1-4.21,6.5-11.35,4.24-16.96-3.86-9.21-1.78-42.47,25.47-34.04Z"/><path class="cls-14_checklist-43" d="M160.34,86.36c-17.85,17.03-25.17,6.7-34.09,11.41-8.92,4.71-12.35,6.39-9.11,24.14,3.24,17.74-12.72,13.91-16.54,24.65-10.94,30.69,7.19,36.05,27.43,35.2,20.24-.85,18.33-37.79,33.25-39.22,14.92-1.43,17.98.8,24.02-18.36,3.55-11.27,1.02-16.19,5.85-20.02,6.16-4.88,8.31-15.46,1.88-19.97-7.08-4.96-21.32-8.66-32.68,2.17Z"/><path class="cls-17_checklist-43 targetColor" d="M157.03,154.48s-1.49-6.8,3.4-9.14c4.89-2.34,18.91-3.47,20.86,0,1.95,3.47,4.09,11.32,6.17,11.51s10.65,13.81,10.65,13.81c0,0,1.79,37.85,1.89,52.54.17,23.35-13.82,59.79-33.14,56.82s-33.4-8.34-33.09-18.35c.32-10.01,16.63-85.44,15.46-93.94-1.27-9.16,7.45-13.57,7.78-13.26Z" style="fill: rgb(104, 173, 253);"/><path class="cls-4_checklist-43" d="M157.03,154.48s-1.49-6.8,3.4-9.14c4.89-2.34,18.91-3.47,20.86,0,1.95,3.47,4.09,11.32,6.17,11.51s10.65,13.81,10.65,13.81c0,0,1.79,37.85,1.89,52.54.17,23.35-13.82,59.79-33.14,56.82s-33.4-8.34-33.09-18.35c.32-10.01,16.63-85.44,15.46-93.94-1.27-9.16,7.45-13.57,7.78-13.26Z"/><path class="cls-17_checklist-43 targetColor" d="M174.37,166.28s7.44-14.67,17.98-5.75c10.54,8.92,23.48,41.9,32.49,42.08s46.03-29.65,49.26-26.95c3.23,2.7,8.84,9.43,5.82,15.18-3.02,5.75-44.42,42-62.25,38.6-17.83-3.39-55.84-27.74-43.3-63.16Z" style="fill: rgb(104, 173, 253);"/><path class="cls-3_checklist-43" d="M174.37,166.28s7.44-14.67,17.98-5.75c10.54,8.92,23.48,41.9,32.49,42.08s46.03-29.65,49.26-26.95c3.23,2.7,8.84,9.43,5.82,15.18-3.02,5.75-44.42,42-62.25,38.6-17.83-3.39-55.84-27.74-43.3-63.16Z"/><path class="cls-16_checklist-43" d="M275.29,176.74s7.52-14.01,8.14-16.54c.62-2.53,2.5,1.27,2.5,1.27,0,0,6.47-5.11,7.55-7.34,1.08-2.23,10.45-5.68,14.68-5.13s-2.88,3.15-2.88,3.15c0,0-3.35,1.53-5.11,9.95-1.75,8.42-3.53,15.62-11.3,19.15s-8.26,4.32-8.26,4.32c0,0-1.83-7.41-5.32-8.83Z"/><path class="cls-14_checklist-43" d="M137.48,269.82s-9.26,21.2,7.96,41c17.23,19.79,30.07,35.24,26.44,65.88-3.63,30.63,5.08,46.42,5.08,46.42h10.16s15.76-56.75,13.04-80.78c-2.72-24.03-14.58-72.44-14.58-72.44,0,0-23.21-11.08-48.1-.07Z"/><path class="cls-16_checklist-43" d="M176.96,423.1v12.95h27.98s-16.75-3.03-17.23-6.47c-.47-3.45-.6-6.47-.6-6.47h-10.16Z"/><path class="cls-14_checklist-43" d="M179.03,432.07c-1.27-.26-2.84-.58-3.64.44-.26.38-.43.82-.49,1.27-.25,1.26-.34,2.54-.27,3.82.05.96.27,2.04,1.1,2.51.52.24,1.09.33,1.66.27l29.01-.53c1.11,0,2.39-.12,3.01-1.04.28-.45.41-.98.36-1.51-.16-1.46-.95-2.77-2.16-3.6-1.2-.82-2.54-1.43-3.95-1.79-3.6-1.09-9.35-3.14-12.9-1.65-3.88,1.6-7.46,2.7-11.74,1.81Z"/><path class="cls-16_checklist-43" d="M87.09,390.49l-11.51,5.88,14.01,24.22s-5.75-16.02-3.04-18.15c2.72-2.13,5.29-3.75,5.29-3.75l-4.76-8.2Z"/><path class="cls-14_checklist-43" d="M80.01,396.18c-.4-1.23-.92-2.75-2.2-2.93-.46-.04-.92.03-1.34.21-1.21.42-2.37.98-3.45,1.68-.8.52-1.62,1.25-1.62,2.21.06.57.26,1.11.6,1.57,5,8.29,9.99,16.57,14.99,24.86.58.94,1.31,2,2.41,2.09.53.02,1.05-.14,1.49-.45,1.19-.87,1.95-2.21,2.06-3.68.11-1.45-.04-2.91-.42-4.32-.84-3.65-1.98-9.68-5.03-12-3.37-2.54-6.11-5.09-7.48-9.24Z"/></g></svg>