<svg id="_0196_family_2" xmlns="http://www.w3.org/2000/svg" xmlns:xlink="http://www.w3.org/1999/xlink" viewBox="0 0 500 500" data-imageid="family-2-69" imageName="Family 2" class="illustrations_image" style="width: 131px;"><defs><style>.cls-1_family-2-69{fill:url(#linear-gradient);}.cls-1_family-2-69,.cls-2_family-2-69,.cls-3_family-2-69,.cls-4_family-2-69,.cls-5_family-2-69,.cls-6_family-2-69,.cls-7_family-2-69,.cls-8_family-2-69,.cls-9_family-2-69,.cls-10_family-2-69,.cls-11_family-2-69,.cls-12_family-2-69,.cls-13_family-2-69,.cls-14_family-2-69,.cls-15_family-2-69,.cls-16_family-2-69,.cls-17_family-2-69,.cls-18_family-2-69,.cls-19_family-2-69,.cls-20_family-2-69,.cls-21_family-2-69,.cls-22_family-2-69,.cls-23_family-2-69,.cls-24_family-2-69,.cls-25_family-2-69,.cls-26_family-2-69,.cls-27_family-2-69,.cls-28_family-2-69,.cls-29_family-2-69,.cls-30_family-2-69,.cls-31_family-2-69,.cls-32_family-2-69,.cls-33_family-2-69,.cls-34_family-2-69,.cls-35_family-2-69,.cls-36_family-2-69,.cls-37_family-2-69,.cls-38_family-2-69,.cls-39_family-2-69,.cls-40_family-2-69,.cls-41_family-2-69,.cls-42_family-2-69,.cls-43_family-2-69,.cls-44_family-2-69,.cls-45_family-2-69{stroke-width:0px;}.cls-2_family-2-69{fill:url(#linear-gradient-3-family-2-69);}.cls-2_family-2-69,.cls-3_family-2-69{opacity:.45;}.cls-2_family-2-69,.cls-3_family-2-69,.cls-39_family-2-69,.cls-45_family-2-69{isolation:isolate;}.cls-3_family-2-69{fill:url(#linear-gradient-2-family-2-69);}.cls-4_family-2-69{fill:url(#linear-gradient-38-family-2-69);}.cls-5_family-2-69{fill:url(#linear-gradient-33-family-2-69);}.cls-6_family-2-69{fill:url(#linear-gradient-29-family-2-69);}.cls-7_family-2-69{fill:url(#linear-gradient-32-family-2-69);}.cls-8_family-2-69{fill:url(#linear-gradient-30-family-2-69);}.cls-9_family-2-69{fill:url(#linear-gradient-31-family-2-69);}.cls-10_family-2-69{fill:url(#linear-gradient-36-family-2-69);}.cls-11_family-2-69{fill:url(#linear-gradient-34-family-2-69);}.cls-12_family-2-69{fill:url(#linear-gradient-37-family-2-69);}.cls-13_family-2-69{fill:url(#linear-gradient-35-family-2-69);}.cls-14_family-2-69{fill:url(#linear-gradient-28-family-2-69);}.cls-15_family-2-69{fill:url(#linear-gradient-25-family-2-69);}.cls-16_family-2-69{fill:url(#linear-gradient-11-family-2-69);}.cls-17_family-2-69{fill:url(#linear-gradient-12-family-2-69);}.cls-18_family-2-69{fill:url(#linear-gradient-13-family-2-69);}.cls-19_family-2-69{fill:url(#linear-gradient-10-family-2-69);}.cls-20_family-2-69{fill:url(#linear-gradient-17-family-2-69);}.cls-21_family-2-69{fill:url(#linear-gradient-16-family-2-69);}.cls-22_family-2-69{fill:url(#linear-gradient-19-family-2-69);}.cls-23_family-2-69{fill:url(#linear-gradient-15-family-2-69);}.cls-24_family-2-69{fill:url(#linear-gradient-23-family-2-69);}.cls-25_family-2-69{fill:url(#linear-gradient-21-family-2-69);}.cls-26_family-2-69{fill:url(#linear-gradient-18-family-2-69);}.cls-27_family-2-69{fill:url(#linear-gradient-14-family-2-69);}.cls-28_family-2-69{fill:url(#linear-gradient-22-family-2-69);}.cls-29_family-2-69{fill:url(#linear-gradient-20-family-2-69);}.cls-30_family-2-69{fill:url(#linear-gradient-27-family-2-69);}.cls-31_family-2-69{fill:url(#linear-gradient-24-family-2-69);}.cls-32_family-2-69{fill:url(#linear-gradient-26-family-2-69);}.cls-33_family-2-69{fill:url(#linear-gradient-4-family-2-69);}.cls-34_family-2-69{fill:url(#linear-gradient-8-family-2-69);}.cls-35_family-2-69{fill:url(#linear-gradient-9-family-2-69);}.cls-36_family-2-69{fill:url(#linear-gradient-7-family-2-69);}.cls-37_family-2-69{fill:url(#linear-gradient-5-family-2-69);}.cls-38_family-2-69{fill:url(#linear-gradient-6-family-2-69);}.cls-39_family-2-69{opacity:.24;}.cls-39_family-2-69,.cls-44_family-2-69,.cls-45_family-2-69{fill:#68e1fd;}.cls-40_family-2-69{fill:#606161;}.cls-41_family-2-69{fill:#fff;}.cls-42_family-2-69{fill:#ffaa71;}.cls-43_family-2-69{fill:#ffb4a3;}.cls-45_family-2-69{opacity:.5;}</style><linearGradient id="linear-gradient-family-2-69" x1="435.58" y1="2606.15" x2="517.27" y2="2560.81" gradientTransform="translate(-32.46 2934.99) scale(1 -1)" gradientUnits="userSpaceOnUse"><stop offset=".12" stop-color="#010101" stop-opacity="0"/><stop offset=".67" stop-color="#010101" stop-opacity=".67"/><stop offset=".95" stop-color="#010101"/></linearGradient><linearGradient id="linear-gradient-2-family-2-69" x1="437.59" y1="2623.77" x2="314.79" y2="2574.45" xlink:href="#linear-gradient-family-2-69"/><linearGradient id="linear-gradient-3-family-2-69" x1="103.16" y1="2598.22" x2="233.55" y2="2584.02" xlink:href="#linear-gradient-family-2-69"/><linearGradient id="linear-gradient-4-family-2-69" x1="83.87" y1="2588.76" x2="138.05" y2="2596.99" xlink:href="#linear-gradient-family-2-69"/><linearGradient id="linear-gradient-5-family-2-69" x1="308.41" y1="2634.44" x2="324.57" y2="2714.22" gradientTransform="translate(-32.46 2934.99) scale(1 -1)" gradientUnits="userSpaceOnUse"><stop offset="0" stop-color="#fff" stop-opacity="0"/><stop offset=".95" stop-color="#fff"/></linearGradient><linearGradient id="linear-gradient-6-family-2-69" x1="377.04" y1="2548.87" x2="401.78" y2="2580.51" xlink:href="#linear-gradient-family-2-69"/><linearGradient id="linear-gradient-7-family-2-69" x1="349.43" y1="2655.45" x2="351.79" y2="2608.33" xlink:href="#linear-gradient-family-2-69"/><linearGradient id="linear-gradient-8-family-2-69" x1="322.15" y1="2719.66" x2="326.69" y2="2756.14" xlink:href="#linear-gradient-family-2-69"/><linearGradient id="linear-gradient-9-family-2-69" x1="314.46" y1="2536.71" x2="323.04" y2="2627.09" xlink:href="#linear-gradient-family-2-69"/><linearGradient id="linear-gradient-10-family-2-69" x1="368.47" y1="2561.77" x2="401.12" y2="2561.77" xlink:href="#linear-gradient-family-2-69"/><linearGradient id="linear-gradient-11-family-2-69" x1="284.76" y1="2780.18" x2="332.73" y2="2780.18" xlink:href="#linear-gradient-family-2-69"/><linearGradient id="linear-gradient-12-family-2-69" x1="348.85" y1="2624.01" x2="391.32" y2="2624.01" xlink:href="#linear-gradient-family-2-69"/><linearGradient id="linear-gradient-13-family-2-69" x1="242.87" y1="2723.01" x2="264.71" y2="2723.01" xlink:href="#linear-gradient-family-2-69"/><linearGradient id="linear-gradient-14-family-2-69" x1="206.58" y1="2718.57" x2="229.15" y2="2718.57" xlink:href="#linear-gradient-family-2-69"/><linearGradient id="linear-gradient-15-family-2-69" x1="221.89" y1="2571.65" x2="231.9" y2="2676.55" xlink:href="#linear-gradient-5-family-2-69"/><linearGradient id="linear-gradient-16-family-2-69" x1="273.66" y1="2654.21" x2="217.69" y2="2642.83" xlink:href="#linear-gradient-family-2-69"/><linearGradient id="linear-gradient-17-family-2-69" x1="204.81" y1="2627.78" x2="142.21" y2="2663.12" xlink:href="#linear-gradient-5-family-2-69"/><linearGradient id="linear-gradient-18-family-2-69" x1="226.48" y1="2697.55" x2="252.03" y2="2739.53" xlink:href="#linear-gradient-family-2-69"/><linearGradient id="linear-gradient-19-family-2-69" x1="269.39" y1="2595.72" x2="332.48" y2="2595.72" xlink:href="#linear-gradient-family-2-69"/><linearGradient id="linear-gradient-20-family-2-69" x1="134.67" y1="2577.7" x2="232.73" y2="2577.7" xlink:href="#linear-gradient-family-2-69"/><linearGradient id="linear-gradient-21-family-2-69" x1="171.55" y1="2555.54" x2="211.33" y2="2555.54" xlink:href="#linear-gradient-family-2-69"/><linearGradient id="linear-gradient-22-family-2-69" x1="226.93" y1="2569.66" x2="268.47" y2="2569.66" xlink:href="#linear-gradient-family-2-69"/><linearGradient id="linear-gradient-23-family-2-69" x1="257.77" y1="2543.62" x2="230.84" y2="2557.42" xlink:href="#linear-gradient-family-2-69"/><linearGradient id="linear-gradient-24-family-2-69" x1="200.07" y1="2588.12" x2="291.04" y2="2588.12" xlink:href="#linear-gradient-family-2-69"/><linearGradient id="linear-gradient-25-family-2-69" x1="294.04" y1="2667.86" x2="318.94" y2="2584.05" gradientTransform="translate(-32.46 2934.99) scale(1 -1)" gradientUnits="userSpaceOnUse"><stop offset=".12" stop-color="#010101" stop-opacity="0"/><stop offset=".45" stop-color="#010101" stop-opacity=".35"/><stop offset=".67" stop-color="#010101" stop-opacity=".67"/><stop offset=".95" stop-color="#010101"/></linearGradient><linearGradient id="linear-gradient-26-family-2-69" x1="258.67" y1="313.46" x2="250.85" y2="244.83" gradientTransform="matrix(1,0,0,1,0,0)" xlink:href="#linear-gradient-5-family-2-69"/><linearGradient id="linear-gradient-27-family-2-69" x1="271.17" y1="2714.75" x2="290.51" y2="2714.75" xlink:href="#linear-gradient-25-family-2-69"/><linearGradient id="linear-gradient-28-family-2-69" x1="417.38" y1="2710.47" x2="424.7" y2="2758.34" gradientTransform="translate(-19.54 2985.57) rotate(-2.84) scale(1 -1)" xlink:href="#linear-gradient-family-2-69"/><linearGradient id="linear-gradient-29-family-2-69" x1="281.38" y1="2725.28" x2="323.93" y2="2725.28" xlink:href="#linear-gradient-family-2-69"/><linearGradient id="linear-gradient-30-family-2-69" x1="299.5" y1="2663.71" x2="324.91" y2="2671.94" gradientTransform="translate(-32.46 2934.99) scale(1 -1)" gradientUnits="userSpaceOnUse"><stop offset="0" stop-color="#fff" stop-opacity="0"/><stop offset=".66" stop-color="#fff"/></linearGradient><linearGradient id="linear-gradient-31-family-2-69" x1="236.29" y1="284.59" x2="244.55" y2="253.97" gradientTransform="matrix(1,0,0,1,0,0)" xlink:href="#linear-gradient-5-family-2-69"/><linearGradient id="linear-gradient-32-family-2-69" x1="223.31" y1="2641.19" x2="176.02" y2="2616.28" xlink:href="#linear-gradient-family-2-69"/><linearGradient id="linear-gradient-33-family-2-69" x1="199.24" y1="2636.35" x2="210.85" y2="2576.78" xlink:href="#linear-gradient-family-2-69"/><linearGradient id="linear-gradient-34-family-2-69" x1="197.17" y1="2641.18" x2="93.42" y2="2572.01" xlink:href="#linear-gradient-family-2-69"/><linearGradient id="linear-gradient-35-family-2-69" x1="173.55" y1="2687.44" x2="162.72" y2="2684.76" gradientTransform="translate(-32.46 2934.99) scale(1 -1)" gradientUnits="userSpaceOnUse"><stop offset=".12" stop-color="#010101" stop-opacity="0"/><stop offset=".95" stop-color="#010101"/></linearGradient><linearGradient id="linear-gradient-36-family-2-69" x1="164.96" y1="2704.85" x2="206.99" y2="2704.85" xlink:href="#linear-gradient-family-2-69"/><linearGradient id="linear-gradient-37-family-2-69" x1="285.19" y1="2707.07" x2="291.8" y2="2711.57" xlink:href="#linear-gradient-family-2-69"/><linearGradient id="linear-gradient-38-family-2-69" x1="262.54" y1="2757.38" x2="235.78" y2="2734.83" xlink:href="#linear-gradient-family-2-69"/></defs><g id="background_family-2-69"><path class="cls-39_family-2-69 targetColor" d="M486.56,239.51c-9.16,18.61-24.6,34.81-25.24,56.16-.52,17.34,9.11,33.11,10.43,50.39.32,4.1.17,8.22-.43,12.28-1.4,9.34-4.63,18.31-9.51,26.4-14.17,24.01-38.33,38.23-63.05,44.19-24.72,5.96-50.21,4.51-75.42,3.06l-159.91-9.24c-21.51-1.24-43.17-2.5-64.04-8.59-16.97-5-32.94-12.91-47.21-23.36-9.34-6.72-17.73-14.66-24.94-23.62-9.11-11.33-16.08-24.57-19.26-39.48-6.51-30.55,4.38-63.6,23.21-86.41,4.19-5.09,8.89-9.94,11.42-16.32,5.31-13.39-.19-28.98.52-43.67.84-16.88,10.74-32.71,24.45-38.88,10.02-4.54,21.17-4.07,31.94-3.52,23.76,1.17,55.48,9.76,77.4-2.5,23.54-13.14,40.89-27.15,68.81-23.62,12.78,1.6,25.18,6.29,37.99,7.41,35.95,3.09,69.16-22.1,104.92-26.97,32.84-4.47,67.77,9.94,88.6,39.44,20.83,29.5,25.58,73.77,9.32,106.85Z" style="fill: rgb(104, 173, 253);"/><path class="cls-39_family-2-69 targetColor" d="M471.32,358.36c-1.4,9.34-4.63,18.31-9.51,26.4-14.17,24.01-38.33,38.23-63.05,44.19-24.72,5.96-50.21,4.51-75.42,3.06l-159.91-9.24c-21.51-1.24-43.17-2.5-64.04-8.59-16.97-5-32.94-12.91-47.21-23.36-9.34-6.72-17.73-14.66-24.94-23.62,16.33-2.56,36.29.15,47.68-.09l96.59-2.15c63.47-1.39,126.92-2.79,190.34-4.19l109.47-2.4Z" style="fill: rgb(104, 173, 253);"/><path class="cls-45_family-2-69 targetColor" d="M81.37,370.85c13.47,12.02,35.46,4.41,51.99,11.66-5.48,3.29-10.08,7.85-13.43,13.3,22.98.84,45.97,1.12,68.98.82-2.92,2.02-4.94,5.08-5.67,8.55,66.63,2.06,133.29,1.54,199.95-1.55,4.68-.21,9.61-.52,13.54-3.07,3.94-2.55,6.31-8.15,3.75-12.08-1.8-2.78-5.29-3.81-8.25-5.3-2.96-1.49-5.91-4.48-5.01-7.67,1.73-6.04,14.25-4.51,13.92-10.78-.15-2.81-3.19-4.41-5.81-5.45l6-2.28-164-1.27c-28.93-.23-57.98-.45-86.73,3.46-21.91,2.98-48.96,3-69.24,11.64Z" style="fill: rgb(104, 173, 253);"/></g><g id="pillows_family-2-69"><path class="cls-41_family-2-69" d="M411.51,292.51c5.1-3.26,10.67-6.65,16.71-6.22s11.88,6.78,9.39,12.3c-.76,1.69-2.15,3.04-2.95,4.72-1.18,2.53-.84,5.48-.45,8.24,2.07,14.53,5.06,29.73.15,43.56-1.83,5.13-4.75,10.09-4.72,15.55,0,2.71.77,5.39.54,8.09s-1.89,5.6-4.57,5.93c-3.99.49-6.14-4.46-9.31-6.97-4.86-3.88-11.95-1.64-18.15-2.15-7.03-.56-13.17-4.8-19.88-7-8.4-2.77-17.8-2.35-25.69-6.34-9.01-4.55-14.54-14.25-16.39-24.16s-.52-20.12,1.15-30.06c2.25-13.33,6.68-38.86,24.03-39.59,8.2-.34,17.85,4.23,25.05,7.6,2.51,1.18,25.25,16.4,25.08,16.5Z"/><path class="cls-1_family-2-69" d="M420.4,368.29c1-5.73,5.95-9.96,7.97-15.43.7-2.06,1.15-4.19,1.35-6.36,1.08-8.77,1.18-17.64.29-26.43-1.3-12.95-5.28-7.19-8.79,1.6-5.98,14.91-6.27,31.49-.83,46.61Z"/><path class="cls-3_family-2-69" d="M364.2,337.7c-.11,2.48-.14,5.05.72,7.37,2.77,7.41,13.71,10.42,14.19,18.32-9.72,3.58-21.76-1.13-26.49-10.36-2.48-4.87-3.01-10.45-3.49-15.89-1.02-11.42-2.25-22.84-3.06-34.27-.46-6.66.19-12.51,8.39-11.54,17.82,2.1,10.22,34.97,9.74,46.37Z"/><path class="cls-41_family-2-69" d="M79.04,297.85c-5.53,2.25-11.01,5.51-16.97,5.18-3.58-.2-7.08-1.73-10.68-1.55s-7.55,3.24-6.61,6.71c.43,1.56,1.7,2.71,2.61,4.05,2.53,3.73,2.04,8.63,1.94,13.13-.19,8.68,1.41,17.3,4.7,25.33,2.43,5.93,5.81,11.58,6.91,17.9,1,5.64.83,12.76,5.93,15.35,8.55-7,20.97-5.01,31.95-6.27,13-1.49,24.83-7.92,36.29-14.25,1.23-.56,2.31-1.4,3.17-2.44.77-1.32,1.14-2.84,1.06-4.37.11-6.3-1.57-12.51-3.67-18.45-4.68-13.23-11.41-25.64-19.94-36.78-4.4-5.73-6.36-9.66-13.74-8.79-7.77.92-15.66,2.28-22.94,5.25Z"/><path class="cls-2_family-2-69" d="M95.56,314.66c-.84,1.84-1.7,3.75-1.69,5.77,0,5.66,6.32,9.08,8.75,14.19-7.74,5.73-10.19,17.49-5.38,25.83,1.55,2.69,3.82,5.3,3.64,8.39-.11,1.9-1.13,3.92-.22,5.6,4.77.31,9.21-2.15,13.6-4.02,7.32-3.14,15.15-4.88,22.91-6.61-.79-4.08-2.97-7.73-5.12-11.29-7.87-13.11-15.86-26.29-26.08-37.68-2.38-2.66-3.46-7.19-5.91-9.26-2.07,2.07-3.24,6.28-4.51,9.08Z"/><path class="cls-45_family-2-69 targetColor" d="M61.09,327.37c2.48,3.99,4.68,8.14,6.58,12.43,1.74,4.2,2.9,8.62,3.45,13.13.87,7.16,0,14.95-4.29,20.76-.08.14-.22.25-.37.3-.28.04-.48-.26-.59-.52-3-6.63-5.99-13.25-8.99-19.88-1.32-2.91-2.63-5.82-3.67-8.83-2.55-7.44-3.38-15.37-2.43-23.18.29-2.36.42-7.39,3.85-5.01,2.65,1.83,4.84,8.05,6.47,10.79Z" style="fill: rgb(104, 173, 253);"/><path class="cls-33_family-2-69" d="M61.09,327.37c2.48,3.99,4.68,8.14,6.58,12.43,1.74,4.2,2.9,8.62,3.45,13.13.87,7.16,0,14.95-4.29,20.76-.08.14-.22.25-.37.3-.28.04-.48-.26-.59-.52-3-6.63-5.99-13.25-8.99-19.88-1.32-2.91-2.63-5.82-3.67-8.83-2.55-7.44-3.38-15.37-2.43-23.18.29-2.36.42-7.39,3.85-5.01,2.65,1.83,4.84,8.05,6.47,10.79Z"/></g><g id="family_family-2-69"><path class="cls-44_family-2-69 targetColor" d="M303.34,202.52c5.73-.11,11.42.29,17.12.72,3.46.25,6.94.51,10.24,1.55,2.66.92,5.22,2.12,7.63,3.58,12.02,6.85,23.18,15.13,33.23,24.64,1.85,1.75,4.29,3.48,6.74,4.07,2.44.59,5.39.07,6.96-1.93.92-1.18,1.27-2.7,1.69-4.14,1.26-4.29,3.94-8.83,8.33-9.83,4.29-.97,8.73,1.91,10.8,5.78s2.25,8.46,1.98,12.84c-.51,7.29-2,14.47-4.42,21.36-1.05,3.01-2.34,6.12-4.82,8.12s-5.73,2.6-8.89,2.86c-17.9,1.35-34.93-7.2-50.86-15.53-.21,8.59,1.74,17.06,2.2,25.63s-.85,17.78-6.52,24.22c-7.27,8.16-19.43,9.65-30.36,9.17-9.39-.42-18.71-1.86-27.8-4.29-2.48-.67-5.01-1.43-6.99-3.1-1.55-1.39-2.75-3.13-3.51-5.07-5.91-13.76-.47-35.17-6.31-48.96-30.31,6.24-59.64,7.57-88.05-4.72-1.27-.56-2.62-1.18-3.4-2.34-.89-1.32-.87-3.05-.72-4.65.39-4.61,1.35-9.15,2.86-13.52,11.45,5.43,23.1,10.92,35.61,12.93,12.51,2,13.9-.64,23.66-8.73,7.08-5.87,23.85-13.71,30.9-19.61,11.37-9.51,27.9-10.7,42.71-11.02Z" style="fill: rgb(104, 173, 253);"/><path class="cls-37_family-2-69" d="M303.34,202.52c5.73-.11,11.42.29,17.12.72,3.46.25,6.94.51,10.24,1.55,2.66.92,5.22,2.12,7.63,3.58,12.02,6.85,23.18,15.13,33.23,24.64,1.85,1.75,4.29,3.48,6.74,4.07,2.44.59,5.39.07,6.96-1.93.92-1.18,1.27-2.7,1.69-4.14,1.26-4.29,3.94-8.83,8.33-9.83,4.29-.97,8.73,1.91,10.8,5.78s2.25,8.46,1.98,12.84c-.51,7.29-2,14.47-4.42,21.36-1.05,3.01-2.34,6.12-4.82,8.12s-5.73,2.6-8.89,2.86c-17.9,1.35-34.93-7.2-50.86-15.53-.21,8.59,1.74,17.06,2.2,25.63s-.85,17.78-6.52,24.22c-7.27,8.16-19.43,9.65-30.36,9.17-9.39-.42-18.71-1.86-27.8-4.29-2.48-.67-5.01-1.43-6.99-3.1-1.55-1.39-2.75-3.13-3.51-5.07-5.91-13.76-.47-35.17-6.31-48.96-30.31,6.24-59.64,7.57-88.05-4.72-1.27-.56-2.62-1.18-3.4-2.34-.89-1.32-.87-3.05-.72-4.65.39-4.61,1.35-9.15,2.86-13.52,11.45,5.43,23.1,10.92,35.61,12.93,12.51,2,13.9-.64,23.66-8.73,7.08-5.87,23.85-13.71,30.9-19.61,11.37-9.51,27.9-10.7,42.71-11.02Z"/><path class="cls-40_family-2-69" d="M301.98,350.25c-2.86.15-5.81.06-8.44-1.08-7.32-3.19-8.94-12.65-9.55-20.61-.38-4.87-.72-10.02,1.54-14.4,3.07-5.98,9.35-7.87,14.75-11.01,6.74-3.94,9.35-8.04,14.6-13.39,9.54-9.74,26.08-8.59,34.22,3.17,18.96,27.4-23.97,56.11-47.12,57.32Z"/><path class="cls-40_family-2-69" d="M377.29,369.87c1.47,1.7,2.91,3.83,2.63,6.14-.31,2.63-2.74,4.4-5.13,5.01-3.19.79-6.51.13-9.72-.53l-26.52-5.43c-.63-.07-1.23-.3-1.74-.67-.52-.52-.88-1.18-1.05-1.9-1.3-4.29-.94-11.12,2.3-14.48,2.68-2.78,7.23-2.32,10.66-2.15,11.03.59,21.35,5.65,28.57,14.01Z"/><path class="cls-40_family-2-69" d="M375.59,371.59c1.43,1.55,2.86,3.47,2.58,5.57-.31,2.38-2.69,3.98-5.01,4.52-3.12.72-6.37.12-9.52-.47l-26-4.92c-.61-.07-1.2-.28-1.71-.62-.5-.46-.85-1.06-1.02-1.72-1.27-3.91-.93-10.08,2.25-13.14,2.63-2.51,7.09-2.1,10.45-1.95,10.62.47,20.64,5.03,27.97,12.73Z"/><path class="cls-38_family-2-69" d="M375.59,371.59c1.43,1.55,2.86,3.47,2.58,5.57-.31,2.38-2.69,3.98-5.01,4.52-3.12.72-6.37.12-9.52-.47l-26-4.92c-.61-.07-1.2-.28-1.71-.62-.5-.46-.85-1.06-1.02-1.72-1.27-3.91-.93-10.08,2.25-13.14,2.63-2.51,7.09-2.1,10.45-1.95,10.62.47,20.64,5.03,27.97,12.73Z"/><path class="cls-36_family-2-69" d="M301.98,350.25c-2.86.15-5.81.06-8.44-1.08-7.32-3.19-8.94-12.65-9.55-20.61-.38-4.87-.72-10.02,1.54-14.4,3.07-5.98,9.35-7.87,14.75-11.01,6.74-3.94,9.35-8.04,14.6-13.39,9.54-9.74,26.08-8.59,34.22,3.17,18.96,27.4-23.97,56.11-47.12,57.32Z"/><path class="cls-43_family-2-69" d="M302.71,200.96c1.43,3.64,3.58,7.32,2.91,11.15-.62,3.38-3.38,5.99-6.37,7.68-2.63,1.49-5.68,2.48-8.67,1.98-3.68-.62-6.69-3.46-8.38-6.79s-2.24-7.11-2.57-10.82c-.32-2.42-.25-4.87.2-7.27.96-4.02,3.75-7.35,7.54-9,3.17-1.36,8.84-1.83,11.63.81,2.9,2.77,2.34,8.68,3.72,12.25Z"/><path class="cls-34_family-2-69" d="M301.46,192.28s-3.41,11.24-5.81,14.4-8.59,3.91-8.59,3.91l-4.03-13.37,18.43-4.93Z"/><path class="cls-43_family-2-69" d="M400.44,229.42c.73.08,1.47-.03,2.15-.3,2.26-.97,2.76-3.87,3.47-6.22,1.43-4.7,4.74-8.53,7.16-12.8,2.42-4.27,3.86-9.75,1.35-13.97-2.23,1.22-4.27,2.76-6.06,4.57-.77.77-1.67,1.66-2.75,1.55-.8-.19-1.51-.67-2-1.33l-5.22-5.65c-.61-.65-1.4-1.37-2.25-1.15-1.17.29-1.26,1.98-.81,3.1.72,1.75,2.04,3.2,2.58,5.01.91,2.98-.51,5.94-1.54,8.68-.95,2.54-1.52,5.2-2.28,7.8-1.36,4.61.82,10.34,6.21,10.7Z"/><path class="cls-40_family-2-69" d="M252.58,338.71c-5.84,4.5-12.25,8.46-16.79,14.27s-6.82,14.17-3.21,20.59c4.52,8.05,15.37,9.31,24.59,9.6,27.04.86,54.34,1.5,80.92-3.52.46-6.19-.33-12.41-2.31-18.3-.17-.65-.5-1.26-.96-1.75-.94-.87-2.39-.72-3.67-.6-11.17,1.28-22.48-.14-32.99-4.13l8.98-7.54c5.13-4.29,10.62-9.19,11.64-15.81,1.36-8.84-6.31-17.04-14.9-19.51-8.1-2.33-23.14-2.53-29.26,3.65-7.6,7.69-13.24,16.3-22.03,23.06Z"/><path class="cls-35_family-2-69" d="M252.58,338.71c-5.84,4.5-12.25,8.46-16.79,14.27s-6.82,14.17-3.21,20.59c4.52,8.05,15.37,9.31,24.59,9.6,27.04.86,54.34,1.5,80.92-3.52.46-6.19-.33-12.41-2.31-18.3-.17-.65-.5-1.26-.96-1.75-.94-.87-2.39-.72-3.67-.6-11.17,1.28-22.48-.14-32.99-4.13l8.98-7.54c5.13-4.29,10.62-9.19,11.64-15.81,1.36-8.84-6.31-17.04-14.9-19.51-8.1-2.33-23.14-2.53-29.26,3.65-7.6,7.69-13.24,16.3-22.03,23.06Z"/><path class="cls-40_family-2-69" d="M341.81,359.87c-.94-.05-1.87.18-2.68.66-.7.63-1.19,1.47-1.38,2.4-1.84,6.06-1.67,12.53-1.43,18.87-.04,1.01.15,2.02.56,2.95.54.86,1.27,1.58,2.15,2.09,6.74,4.48,14.58,7.01,22.67,7.3,2.01.07,4.24-.09,5.67-1.51,1.42-1.42,1.59-3.89,1.3-6-.44-3.2-1.53-6.27-3.2-9.03-1.73-2.83-4.02-5.26-5.93-7.97-1.8-2.56-2.4-8.12-4.93-9.84s-9.71-.09-12.79.08Z"/><path class="cls-19_family-2-69" d="M341.65,356.5c-.94-.04-1.87.19-2.68.67-.71.63-1.19,1.47-1.38,2.4-1.85,6.06-1.68,12.53-1.43,18.87-.04,1.01.15,2.02.56,2.94.55.87,1.29,1.59,2.18,2.1,6.73,4.47,14.57,7,22.64,7.3,2.01.06,4.24-.09,5.66-1.51s1.59-3.89,1.3-6c-.45-3.2-1.55-6.27-3.23-9.03-1.73-2.83-4.02-5.26-5.92-7.97-1.8-2.56-2.4-8.12-4.94-9.83s-9.69-.07-12.76.07Z"/><path class="cls-43_family-2-69" d="M300.34,163.45c.24-.9.89-1.85,1.83-1.83.59.05,1.12.4,1.39.93.26.52.41,1.1.44,1.68.16,1.47.13,2.95-.07,4.41-.05,1.13-.53,2.19-1.35,2.97-.09.12-.26.14-.37.05-.04-.03-.07-.07-.09-.12-.77-1.21-1.3-2.56-1.55-3.98-.24-1.35-.58-2.75-.22-4.11Z"/><path class="cls-43_family-2-69" d="M260.9,174.23c-.45,0-.87.19-1.19.51-.22.31-.33.69-.31,1.07-.06,2.61,2.07,4.76,4.34,6.05.96.54,2.26.97,3.09.23s.56-2.05.14-3.07c-1.07-2.66-2.78-5.11-6.06-4.78Z"/><path class="cls-43_family-2-69" d="M265.73,179.05c3.24,6.73,6.57,13.6,11.91,18.82,3.06,3.45,7.77,4.95,12.26,3.91,3.14-.44,6.34-1.43,8.59-3.7,1.21-1.31,2.16-2.84,2.81-4.5,4.79-11.2,1.92-24.34-3.78-35.12-1.77-3.34-3.91-6.64-7.12-8.59-4.52-2.79-10.34-2.42-15.43-.93-4.45,1.3-14.32,4.65-15.27,9.97-1.15,6.41,3.35,14.61,6.01,20.14Z"/><path class="cls-40_family-2-69" d="M254.43,161.42c-.97-1.49-1.67-3.13-2.05-4.87-.28-1.75.19-3.73,1.6-4.8.35-.21.66-.47.92-.78.24-.46.35-.98.31-1.5.26-4.9,4.29-8.93,8.88-10.74s9.61-1.77,14.52-1.78,9.97-.12,14.46-2.1c.48,1.53.47,3.18-.04,4.7,1.16-.72,2.75.49,2.91,1.85s-.61,2.63-1.34,3.79c2.86.72,4.35,3.94,4.61,6.88s-.25,5.96.49,8.82c.27.77.45,1.57.54,2.38.11.84-.28,1.67-.99,2.13-1.3-4.29-4.05-7.95-6.76-11.52-.76-1.13-1.71-2.13-2.79-2.95-1.11-.83-2.56-1.06-3.87-.63-.84.47-1.64,1.01-2.38,1.61-.96.53-2.01.87-3.1,1.02-6.13,1.13-12.8,1.07-17.93,4.61-.66.39-1.19.96-1.53,1.64-.24.77-.27,1.58-.1,2.36l1.07,8.22c.23,1.78.57,3.67,1.9,4.97-3.93-3.79-6.66-8.64-9.33-13.34Z"/><path class="cls-16_family-2-69" d="M254.43,161.42c-.97-1.49-1.67-3.13-2.05-4.87-.28-1.75.19-3.73,1.6-4.8.35-.21.66-.47.92-.78.24-.46.35-.98.31-1.5.26-4.9,4.29-8.93,8.88-10.74s9.61-1.77,14.52-1.78,9.97-.12,14.46-2.1c.48,1.53.47,3.18-.04,4.7,1.16-.72,2.75.49,2.91,1.85s-.61,2.63-1.34,3.79c2.86.72,4.35,3.94,4.61,6.88s-.25,5.96.49,8.82c.27.77.45,1.57.54,2.38.11.84-.28,1.67-.99,2.13-1.3-4.29-4.05-7.95-6.76-11.52-.76-1.13-1.71-2.13-2.79-2.95-1.11-.83-2.56-1.06-3.87-.63-.84.47-1.64,1.01-2.38,1.61-.96.53-2.01.87-3.1,1.02-6.13,1.13-12.8,1.07-17.93,4.61-.66.39-1.19.96-1.53,1.64-.24.77-.27,1.58-.1,2.36l1.07,8.22c.23,1.78.57,3.67,1.9,4.97-3.93-3.79-6.66-8.64-9.33-13.34Z"/><path class="cls-40_family-2-69" d="M319.91,268.31c3.34-8.25,12.43-15.08,20.81-12.08,27.56,9.85,15.32,75.4,16.08,103.95.02,2.35-1.08,4.56-2.96,5.96-1.32.94-10.41-.59-12.03-.43-5.24.54-16.94-61.72-22.47-70.5-4.98-7.91-2.9-18.37.57-26.89Z"/><path class="cls-17_family-2-69" d="M319.91,268.31c3.34-8.25,12.43-15.08,20.81-12.08,27.56,9.85,15.32,75.4,16.08,103.95.02,2.35-1.08,4.56-2.96,5.96-1.32.94-10.41-.59-12.03-.43-5.24.54-16.94-61.72-22.47-70.5-4.98-7.91-2.9-18.37.57-26.89Z"/><path class="cls-40_family-2-69" d="M187.51,168.84c-2.39,1.29-4.47,3.08-6.09,5.25-5.63,8.1-.56,20.36-6.12,28.52-1.36,2-3.27,3.58-4.83,5.43-3.54,4.2-5.17,9.74-5.55,15.21s.37,10.96,1.12,16.39c.21,1.47.45,3.04,1.43,4.16s2.72,1.63,4.29,1.98c14.15,3.08,28.66,4.17,43.11,3.25,2.51-.16,5.13-.42,7.22-1.82,4.92-3.26,4.39-10.44,5.78-16.18,1.17-4.83,4.03-9.08,5.73-13.75,1.97-5.38,2.36-11.17,2.71-16.89.49-7.87.42-17-5.63-22.07-1.95-1.63-4.34-2.63-6.68-3.62-6.13-2.57-12.69-4.35-18.7-6.98-6.21-2.72-11.77-2.4-17.79,1.12Z"/><path class="cls-18_family-2-69" d="M221.65,186.17s10.86,7.12,10.6,18.48c-.26,11.36-8.33,31.3-8.33,31.3l-13.51,1.85,11.24-51.63Z"/><path class="cls-27_family-2-69" d="M183.38,203.36c-1.82,1.52-2.98,3.68-3.97,5.84-3.14,6.9-4.94,14.34-5.29,21.91l16.36.16c.55.05,1.11-.04,1.62-.27.59-.44,1.01-1.07,1.19-1.78,1.74-4.65,3.45-9.44,3.41-14.4-.05-6.27-5.83-17.72-13.31-11.46Z"/><path class="cls-44_family-2-69 targetColor" d="M229.18,246.83c5.52,6.03,7.77,14.58,7.28,22.75s-3.47,16-7.33,23.21c-1.94,3.63.72,13.83.21,17.9-.64,4.97-1.2,5.1-1.89,10.06-.77,5.56-7.07,8.47-11.02,12.46-5.31,5.37-10.99,10.37-16.98,14.98-8.12,6.23-17.97,11.96-28.02,10.02-4.22-.81-8.07-2.92-11.78-5.09-4.55-2.66-9.01-5.44-13.4-8.35-2.34-1.07-3.75-3.5-3.51-6.06-.49-8.36-.97-16.95.89-25.15,1.59-7.09,4.85-13.73,6.44-20.82,3.12-13.87-.29-28.74,3.77-42.37.76-2.54,1.84-5.1,3.86-6.83,1.69-1.43,3.87-2.15,5.99-2.86,8.99-2.86,18.04-5.78,27.39-6.97,15.82-1.99,27.44,1.47,38.08,13.11Z" style="fill: rgb(104, 173, 253);"/><path class="cls-23_family-2-69" d="M234.27,256.4c1.5,8.28,16.89-7.75,16.41.84s-16.84,26.4-20.7,33.99c-1.94,3.82-.23,16.65-.76,20.95-.64,5.23-1.07,3.36-1.77,8.59-.77,5.85-7.07,6.92-11.02,11.12-5.29,5.63-10.97,10.89-16.98,15.75-8.12,6.56-17.97,12.6-28.02,10.57-4.22-.85-8.07-3.08-11.78-5.36-4.55-2.79-9.01-5.72-13.4-8.79-1.14-.67-2.1-1.61-2.8-2.74-.49-1.15-.74-2.38-.72-3.63-.49-8.86-.96-17.85.89-26.49,1.59-7.47,4.85-14.45,6.44-21.9,3.12-14.6-.29-30.25,3.77-44.6.76-2.67,1.84-5.38,3.86-7.16,1.69-1.52,3.87-2.28,5.99-2.99,8.99-3.04,18.04-6.08,27.39-7.33,15.83-2.18,40.4,13.77,43.17,29.16Z"/><path class="cls-21_family-2-69" d="M224.1,256.74s.51,18.01,5.25,53.97c0,0,8.17-16.09,8.35-18.33s-5.07-35.65-13.6-35.65Z"/><path class="cls-44_family-2-69 targetColor" d="M100.26,301.54c-1.05,2.26-2.05,4.62-2.18,7.11-.03,2.67.62,5.31,1.89,7.66,3.15,6.34,8.46,11.34,14.98,14.1,6.82,2.86,14.44,3.05,21.84,3.11,2.39,0,4.97,0,6.9-1.43,2.91-2.11,3.15-6.3,3.11-9.9-5.12-2.39-9.88-5.5-14.13-9.22-1.09-.83-1.96-1.91-2.54-3.14-.78-2.04,0-4.29.8-6.34,4.32-10.51,10.6-20.1,18.5-28.25,6.24-6.44,13.95-12.88,14.65-21.84.24-2.11-.19-4.25-1.23-6.11-1.17-1.88-3.11-3.13-5.11-4.08-6.97-3.36-11.36-4.29-16.57,1.47-5.21,5.77-10.47,11.78-15.46,17.9-9.83,12.03-18.86,24.83-25.44,38.96Z" style="fill: rgb(104, 173, 253);"/><path class="cls-20_family-2-69" d="M100.26,301.54c-1.05,2.26-2.05,4.62-2.18,7.11-.03,2.67.62,5.31,1.89,7.66,3.15,6.34,8.46,11.34,14.98,14.1,6.82,2.86,14.44,3.05,21.84,3.11,2.39,0,4.97,0,6.9-1.43,2.91-2.11,3.15-6.3,3.11-9.9-5.12-2.39-9.88-5.5-14.13-9.22-1.09-.83-1.96-1.91-2.54-3.14-.78-2.04,0-4.29.8-6.34,4.32-10.51,10.6-20.1,18.5-28.25,6.24-6.44,13.95-12.88,14.65-21.84.24-2.11-.19-4.25-1.23-6.11-1.17-1.88-3.11-3.13-5.11-4.08-6.97-3.36-11.36-4.29-16.57,1.47-5.21,5.77-10.47,11.78-15.46,17.9-9.83,12.03-18.86,24.83-25.44,38.96Z"/><path class="cls-42_family-2-69" d="M104.9,306.48c1.91-.09,3.82-.07,5.73.07,1.43.11,3.26.62,3.46,2.05.16,1.14-.87,2.15-1.95,2.51s-2.27.39-3.35.79c2.14-.12,4.27.41,6.11,1.52.27.14.5.35.66.62.39.78-.47,1.59-1.25,1.98-1.02.51-2.11.88-3.22,1.12,1.34.03,2.64.39,3.81,1.04.49.23.89.62,1.14,1.1.26.93-.19,1.91-1.07,2.31-.86.37-1.8.52-2.73.44.81.23,1.57.62,2.23,1.16.65.56.9,1.46.61,2.28-.42.91-1.57,1.17-2.56,1.31l-5.98.89c-.6.12-1.22.16-1.83.09-.79-.14-1.52-.5-2.09-1.06-2.15-1.97-2.31-5.23-2.33-8.14l-.04-6.72c-.02-2.98,1.52-5.17,4.67-5.35Z"/><path class="cls-42_family-2-69" d="M210.41,237.8c-.72,2.72-2.83,5.31-5.63,5.6-2.31.25-4.48-1.09-6.32-2.52-1.73-1.26-3.23-2.8-4.45-4.56-3.06-4.72-2.58-10.84-1.73-16.4.48-3.08,1.24-6.48,3.81-8.25.57-.43,1.26-.68,1.97-.72.54.02,1.07.14,1.57.35,3.54,1.37,6.28,4.35,8.1,7.68,3.12,5.7,4.4,12.44,2.67,18.8Z"/><path class="cls-26_family-2-69" d="M193.46,215.33s2.18,16.62,9.11,18.61,8.38-1.28,8.38-1.28l.19-12.23-17.67-5.1Z"/><path class="cls-42_family-2-69" d="M215.51,231.33c-1.88,1.36-9.92-1.65-12.02-2.63-2.14-.94-4.09-2.28-5.73-3.94-.91-1.02-1.74-2.12-2.48-3.27-.94-1.23-1.68-2.6-2.21-4.06-.31-1-.42-2.05-.8-3.01-.9-2.25-5.73-4.78-5.73-7.48,0-1.36.13-2.81.93-3.9s2.54-1.61,3.58-.72c-.56-1.76-.63-9.76.24-11.4.92-1.61,2.15-3.02,3.62-4.15,4.59-3.79,10.58-6.13,16.5-5.51,3.88.4,7.51,2.13,10.26,4.9,3.21,3.33,7.29,35.4-6.16,45.18Z"/><path class="cls-22_family-2-69" d="M297.76,352.37c-1-.46-1.9-1.13-2.61-1.98-2.75-2.76-5.68-5.35-8.77-7.73-.83-.73-1.8-1.27-2.86-1.58-1.96-.43-3.88.67-5.67,1.56-4.65,2.33-9.77,3.56-14.98,3.58-1.27-.08-2.54.01-3.79.27-1.32.46-2.56,1.12-3.67,1.95-5.61,3.68-11.89,6.22-18.48,7.49,1.02-2.9,3.89-4.62,6.39-6.44,2.72-1.97,5.17-4.27,7.32-6.85,2.39-2.86,4.4-6.14,7.27-8.59,2.39-2.03,5.27-3.37,8.1-4.7l11.95-5.58c1.12-.61,2.35-1,3.62-1.15,2.93-.12,5.28,2.35,7.04,4.7,3.18,4.28,5.88,8.9,8.05,13.77.84,1.88,6.39,13.19,1.1,11.27Z"/><path class="cls-40_family-2-69" d="M124.56,331.22c-6.44-2.02-14.32-3.36-19.08,1.37-2.95,2.91-3.77,7.49-2.98,11.55,1.02,5.29,4.42,9.89,8.59,13.29,4.17,3.41,9.1,5.73,14.04,7.87,17.78,7.69,36.41,13.17,55,18.61,2.86.84,5.83,1.68,8.73,1.08,5.48-1.15,8.59-6.84,10.93-11.93.85-1.22.55-2.9-.67-3.76-.09-.07-.19-.13-.3-.18-9.99-8.98-21.47-14.55-33.4-20.64-13.14-6.66-26.71-13.06-40.86-17.28Z"/><path class="cls-29_family-2-69" d="M124.56,331.22c-6.44-2.02-14.32-3.36-19.08,1.37-2.95,2.91-3.77,7.49-2.98,11.55,1.02,5.29,4.42,9.89,8.59,13.29,4.17,3.41,9.1,5.73,14.04,7.87,17.78,7.69,36.41,13.17,55,18.61,2.86.84,5.83,1.68,8.73,1.08,5.48-1.15,8.59-6.84,10.93-11.93.85-1.22.55-2.9-.67-3.76-.09-.07-.19-.13-.3-.18-9.99-8.98-21.47-14.55-33.4-20.64-13.14-6.66-26.71-13.06-40.86-17.28Z"/><path class="cls-44_family-2-69 targetColor" d="M142.3,378.75c-1.25,1.12-2.51,2.36-3,3.96-.8,2.59.72,5.49,2.93,7.02s5.06,1.93,7.78,1.98c6.14.1,29.49-10.34,28.84-11.86-1.5-3.45-7.02-12.17-11.24-12.62-5.65-.62-21.43,8.07-25.32,11.52Z" style="fill: rgb(104, 173, 253);"/><path class="cls-40_family-2-69" d="M142.3,378.75c-1.25,1.12-2.51,2.36-3,3.96-.8,2.59.72,5.49,2.93,7.02s5.06,1.93,7.78,1.98c6.14.1,29.49-10.34,28.84-11.86-1.5-3.45-7.02-12.17-11.24-12.62-5.65-.62-21.43,8.07-25.32,11.52Z"/><path class="cls-25_family-2-69" d="M142.3,378.75c-1.25,1.12-2.51,2.36-3,3.96-.8,2.59.72,5.49,2.93,7.02s5.06,1.93,7.78,1.98c6.14.1,29.49-10.34,28.84-11.86-1.5-3.45-7.02-12.17-11.24-12.62-5.65-.62-21.43,8.07-25.32,11.52Z"/><path class="cls-43_family-2-69" d="M163.68,369.76c-1.43.63-2.96,1.38-3.58,2.79-.34.89-.43,1.85-.26,2.79.39,3.1,2.25,6.3,5.27,7.09,2.57.67,5.23-.53,7.61-1.7,3.58-1.77,7.27-3.63,9.86-6.69.94-1.11,1.75-2.55,1.36-3.95-.3-.82-.79-1.56-1.43-2.15-2.33-2.42-4.59-4.48-7.8-3.19-3.74,1.5-7.37,3.38-11.02,5.01Z"/><path class="cls-40_family-2-69" d="M207.33,372.63c4.52,1.43,8.64,3.99,13.18,5.38s9.96,1.38,13.5-1.78c.68-.57,1.22-1.27,1.58-2.08.44-1.27.57-2.63.37-3.97-.34-4.23-1.06-8.42-2.15-12.53-.28-1.51-.95-2.92-1.94-4.09-1.85-1.88-4.85-1.88-7.49-1.74l-14.08.72c-4.69.24-10.09.87-12.65,4.8-.77,1.34-1.33,2.79-1.66,4.29-.78,2.86-3.09,6.9.2,8.7,1.43.79,3.58.72,5.15.94,1.88.28,4.16,1.34,6,1.34Z"/><path class="cls-28_family-2-69" d="M207.33,372.63c4.52,1.43,8.64,3.99,13.18,5.38s9.96,1.38,13.5-1.78c.68-.57,1.22-1.27,1.58-2.08.44-1.27.57-2.63.37-3.97-.34-4.23-1.06-8.42-2.15-12.53-.28-1.51-.95-2.92-1.94-4.09-1.85-1.88-4.85-1.88-7.49-1.74l-14.08.72c-4.69.24-10.09.87-12.65,4.8-.77,1.34-1.33,2.79-1.66,4.29-.78,2.86-3.09,6.9.2,8.7,1.43.79,3.58.72,5.15.94,1.88.28,4.16,1.34,6,1.34Z"/><path class="cls-40_family-2-69" d="M200.99,390.17c3.12.74,6.31,1.09,9.51,1.03,3.23-.16,6.55-1.08,9-3.05,2.45-1.97,3.86-5.1,3-7.8-1.12-3.54-5.39-5.3-9.31-6.41-3.82-1.08-8.23-1.87-11.83,0-1.56.91-2.95,2.07-4.12,3.44-1.16,1.09-2.15,2.34-2.93,3.72-2.5,4.9,1.84,8.09,6.69,9.08Z"/><path class="cls-24_family-2-69" d="M200.99,390.17c3.12.74,6.31,1.09,9.51,1.03,3.23-.16,6.55-1.08,9-3.05,2.45-1.97,3.86-5.1,3-7.8-1.12-3.54-5.39-5.3-9.31-6.41-3.82-1.08-8.23-1.87-11.83,0-1.56.91-2.95,2.07-4.12,3.44-1.16,1.09-2.15,2.34-2.93,3.72-2.5,4.9,1.84,8.09,6.69,9.08Z"/><path class="cls-43_family-2-69" d="M189.09,380.41c2,3.84,6.59,5.92,10.91,5.62,2.25-.16,4.57-.95,6.03-2.68,2.64-3.13,1.05-7.72-7.78-10.57-3.56-1.15-9.84,6.35-9.16,7.63Z"/><path class="cls-40_family-2-69" d="M219.09,324.7c4.71-3.49,9.49-7.04,14.98-9.1,5.49-2.06,11.87-2.5,17.07.19,5.2,2.69,8.71,9.01,6.99,14.61-.72,2.41-2.3,4.45-3.88,6.4-9.96,12.34-21.74,23.38-35.51,31.25-13.77,7.87-29.64,12.46-45.47,11.7-1.2.16-2.31-.66-2.51-1.86l-2.36-6.32c-.55-1.19-.82-2.49-.8-3.81.19-2.06,1.79-3.68,3.3-5.1,14.93-13.92,31.81-25.86,48.18-37.96Z"/><path class="cls-31_family-2-69" d="M219.09,324.7c4.71-3.49,9.49-7.04,14.98-9.1,5.49-2.06,11.87-2.5,17.07.19,5.2,2.69,8.71,9.01,6.99,14.61-.72,2.41-2.3,4.45-3.88,6.4-9.96,12.34-21.74,23.38-35.51,31.25-13.77,7.87-29.64,12.46-45.47,11.7-1.2.16-2.31-.66-2.51-1.86l-2.36-6.32c-.55-1.19-.82-2.49-.8-3.81.19-2.06,1.79-3.68,3.3-5.1,14.93-13.92,31.81-25.86,48.18-37.96Z"/><path class="cls-43_family-2-69" d="M296.87,272.54c5.45.99,10.87-1.52,15.86-3.97l12.03-5.91c1.45-.85,3.06-1.38,4.73-1.56,1.67-.06,3.5.72,4.09,2.3.65,1.73-.42,3.68-1.88,4.8s-3.27,1.69-4.89,2.57c-4.7,2.57-7.48,7.64-11.8,10.81-2.7,1.88-5.76,3.19-8.98,3.85-8.32,1.95-17.73.96-24.34-4.48-4.07-3.35-11.77-17.45-4.29-21.25,3.8-1.92,6.31,3.42,8.46,5.73,3.06,3.27,6.51,6.29,11.01,7.11Z"/><path class="cls-40_family-2-69" d="M229.99,303.69s-6.55,11.7-.47,22.23c6.08,10.53,31.81,13.8,36.51,9.82s13.34-11.22,13.34-11.22c0,0-2.1-4.92,1.87-12.63,3.97-7.72,6.31-9.82,7.95-8.89s12.4,12.17,13.8,18.02,10.53,7.72,13.34,7.95c2.81.24,11.45-3.98,11.45-3.98,0,0-1.17-13.1-5.85-18.01-4.68-4.91-14.5-21.29-28.54-14.98-14.04,6.31-23.86,9.83-23.86,9.83l-39.54,1.87Z"/><path class="cls-15_family-2-69" d="M229.99,303.69s-6.55,11.7-.47,22.23c6.08,10.53,31.81,13.8,36.51,9.82s13.34-11.22,13.34-11.22c0,0-2.1-4.92,1.87-12.63,3.97-7.72,6.31-9.82,7.95-8.89s12.4,12.17,13.8,18.02,10.53,7.72,13.34,7.95c2.81.24,11.45-3.98,11.45-3.98,0,0-1.17-13.1-5.85-18.01-4.68-4.91-14.5-21.29-28.54-14.98-14.04,6.31-23.86,9.83-23.86,9.83l-39.54,1.87Z"/><path class="cls-44_family-2-69 targetColor" d="M235.56,262.99c-1.85,6.59-1,13.67-2.36,20.38-.84,4.21-2.55,8.22-3.21,12.46s-.1,9.01,2.95,12.04c1.85,1.68,4.13,2.81,6.59,3.25,5.5,1.22,11.3.39,16.63-1.43s10.29-4.58,15.2-7.33c1.31-.64,2.5-1.49,3.52-2.52,1.94-2.15,2.21-5.34,2.25-8.26.09-5.83-.31-11.72.82-17.44.79-4.06,2.36-8.02,2.23-12.17-.25-5.35-3.29-10.17-8.01-12.7-4.14-2.15-8.87-2.21-13.36-3.09-3.77-.72-5.68-1.27-9.37.51-6.72,3.22-11.76,9.15-13.87,16.3Z" style="fill: rgb(104, 173, 253);"/><path class="cls-32_family-2-69" d="M235.56,262.99c-1.85,6.59-1,13.67-2.36,20.38-.84,4.21-2.55,8.22-3.21,12.46s-.1,9.01,2.95,12.04c1.85,1.68,4.13,2.81,6.59,3.25,5.5,1.22,11.3.39,16.63-1.43s10.29-4.58,15.2-7.33c1.31-.64,2.5-1.49,3.52-2.52,1.94-2.15,2.21-5.34,2.25-8.26.09-5.83-.31-11.72.82-17.44.79-4.06,2.36-8.02,2.23-12.17-.25-5.35-3.29-10.17-8.01-12.7-4.14-2.15-8.87-2.21-13.36-3.09-3.77-.72-5.68-1.27-9.37.51-6.72,3.22-11.76,9.15-13.87,16.3Z"/><path class="cls-43_family-2-69" d="M231.64,299.57c-.26,4.14-.05,9.03,3.38,11.36,1.51.9,3.22,1.41,4.98,1.47,3.42.3,6.87.06,10.21-.72,1.22-.28,9.43-3.42,9.43-3.42-.34-.52-11.74-3.94-13.6-5.53-3-2.51-2.86-7.12-2.03-10.94s2.03-7.95.34-11.45-8.81-6.68-10.42-1.93c-2.15,6.27-1.9,14.57-2.3,21.16Z"/><path class="cls-40_family-2-69" d="M244.06,201.17c-1.16,1.41-1.95,3.1-2.29,4.9-.86,3.49-1.07,7.12-.63,10.69.61,4.9,2.41,10.02.48,14.58-.6,1.43-1.52,2.64-2.15,4.02-.76,1.35-.92,2.95-.44,4.42.17.46.49.85.91,1.12.83.37,1.8.2,2.45-.44.63-.63,1.11-1.39,1.43-2.22-.57,1.01.22,2.4,1.34,2.7,1.16.23,2.35-.19,3.11-1.1.73-.9,1.3-1.92,1.68-3.02.14.71.46,1.38.91,1.95,2.15-.52,3.38-2.81,4.18-4.9,2.22-5.78,3.58-12.02,2.86-18.17-.59-4.69-7.21-21.82-13.84-14.53Z"/><path class="cls-30_family-2-69" d="M244.06,201.17c-1.16,1.41-1.95,3.1-2.29,4.9-.86,3.49-1.07,7.12-.63,10.69.61,4.9,2.41,10.02.48,14.58-.6,1.43-1.52,2.64-2.15,4.02-.76,1.35-.92,2.95-.44,4.42.17.46.49.85.91,1.12.83.37,1.8.2,2.45-.44.63-.63,1.11-1.39,1.43-2.22-.57,1.01.22,2.4,1.34,2.7,1.16.23,2.35-.19,3.11-1.1.73-.9,1.3-1.92,1.68-3.02.14.71.46,1.38.91,1.95,2.15-.52,3.38-2.81,4.18-4.9,2.22-5.78,3.58-12.02,2.86-18.17-.59-4.69-7.21-21.82-13.84-14.53Z"/><path class="cls-43_family-2-69" d="M270.29,252.37c.11,2.46.37,5.01-.39,7.42s-3.02,4.35-4.7,3.3c-.7-.57-1.25-1.31-1.59-2.15l-5.86-11.52c-.41-.7-.68-1.49-.77-2.3-.08-1.43.54-3.51.56-4.86,0-2.28-.52-5.35,0-6.69s3.85,1.3,4.7.22,2.41-1.05,3.53-.49c2.35,1.15,4.12,3.81,4.67,6.99.12.72.29,1.37.44,2.06.26,1.2.34.59.07,1.88-.5,2-.72,4.06-.66,6.13Z"/><path class="cls-14_family-2-69" d="M260.2,244.35c1.69,3.22,3.58,6.68,6.94,8.12.36.19.77.27,1.17.21.31-.09.58-.26.8-.49,1.07-1.08,1.25-2.73,1.37-4.24l.29-3.5c.06-.3.01-.61-.14-.88-.15-.17-.33-.29-.54-.37l-8.1-3.58c-.94-.42-3.05-1.18-3.58.18-.42,1.06,1.29,3.6,1.78,4.54Z"/><path class="cls-43_family-2-69" d="M269.03,247.74c-4.65-1.35-8.68-4.28-11.38-8.3-.76-1.08-1.37-2.26-1.79-3.51-.42-1.46-.63-2.97-.63-4.49-.14-6.08,1.15-12.1,3.76-17.6.61-1.39,1.43-2.68,2.43-3.82,2.15-2.33,5.4-3.38,8.55-3.9,2.42-.38,4.87-.57,7.32-.59,1.38-.11,2.77.09,4.07.58.95.47,1.79,1.14,2.46,1.95,1.82,2.04,1.87,4.8,2.24,7.55.41,2.93-3.1,35.89-17.03,32.11Z"/><path class="cls-40_family-2-69" d="M291.39,210.52c-.51-3.62-2.08-7-3.82-10.22-.79-1.47-1.68-2.96-3.08-3.87-1.13-.63-2.36-1.04-3.64-1.23l-7.67-1.6c-2.16-.53-4.36-.83-6.58-.91-7.34,0-14.15,5.38-16.58,12.31-2.43,6.92-.76,14.94,3.58,20.84.26.45.69.78,1.2.92.82.09,1.39-.8,1.7-1.57.99-2.47,1.67-5.07,2.86-7.45s3.03-4.59,5.55-5.47c1.26-.34,2.54-.6,3.83-.77,2.15-.45,4.18-1.38,5.91-2.73.29-.31.7-.47,1.12-.44.37.1.57.49.77.82,1.38,2.28,4.45,2.86,6.29,4.82,1.06,1.11,1.64,2.57,2.46,3.87,4.55,7.22,6.61-3.54,6.08-7.29Z"/><path class="cls-6_family-2-69" d="M291.39,210.52c-.51-3.62-2.08-7-3.82-10.22-.79-1.47-1.68-2.96-3.08-3.87-1.13-.63-2.36-1.04-3.64-1.23l-7.67-1.6c-2.16-.53-4.36-.83-6.58-.91-7.34,0-14.15,5.38-16.58,12.31-2.43,6.92-.76,14.94,3.58,20.84.26.45.69.78,1.2.92.82.09,1.39-.8,1.7-1.57.99-2.47,1.67-5.07,2.86-7.45s3.03-4.59,5.55-5.47c1.26-.34,2.54-.6,3.83-.77,2.15-.45,4.18-1.38,5.91-2.73.29-.31.7-.47,1.12-.44.37.1.57.49.77.82,1.38,2.28,4.45,2.86,6.29,4.82,1.06,1.11,1.64,2.57,2.46,3.87,4.55,7.22,6.61-3.54,6.08-7.29Z"/><path class="cls-44_family-2-69 targetColor" d="M282.6,260.1c1.8,2.29,3.69,4.81,3.72,7.72-.05,1.36-.33,2.7-.83,3.97-.75,2.23-1.62,4.43-2.59,6.58-.49,1.08-1.12,2.25-2.23,2.64-2.53-1.17-3.98-3.97-4.39-6.73s0-5.56.21-8.35c.14-1.97.16-3.94.11-5.91,0-1.14-.85-4.85-.24-5.73,1.35-1.93,5.32,4.62,6.24,5.79Z" style="fill: rgb(104, 173, 253);"/><path class="cls-8_family-2-69" d="M282.6,260.1c1.8,2.29,3.69,4.81,3.72,7.72-.05,1.36-.33,2.7-.83,3.97-.75,2.23-1.62,4.43-2.59,6.58-.49,1.08-1.12,2.25-2.23,2.64-2.53-1.17-3.98-3.97-4.39-6.73s0-5.56.21-8.35c.14-1.97.16-3.94.11-5.91,0-1.14-.85-4.85-.24-5.73,1.35-1.93,5.32,4.62,6.24,5.79Z"/><path class="cls-44_family-2-69 targetColor" d="M239.69,254.33c-2.5,3.49-6.04,7.66-7.87,11.54-1.75,3.74-1.79,18.23-1.05,18.52,3.41,1.37,10.17,1.07,13.77.29.5-.06.96-.29,1.32-.64.34-.48.49-1.06.43-1.65-.04-4.33-1.7-10.95-1.75-15.28.08-2.11-.15-4.22-.68-6.26-.63-2-1.85-5.01-3.93-4.7l-.24-1.83Z" style="fill: rgb(104, 173, 253);"/><path class="cls-9_family-2-69" d="M242.99,257.4c-.7-1.52-2.49-2.18-4.01-1.48-.46.21-.86.54-1.16.94-2.15,2.86-4.58,6.03-5.97,9.01-1.75,3.74-1.79,18.23-1.05,18.52,3.41,1.37,10.17,1.07,13.77.29.5-.06.96-.29,1.32-.64.33-.48.47-1.07.4-1.65-.04-4.33-1.7-10.95-1.75-15.28,0-2.1-.48-4.16-.68-6.26-.1-1.19-.4-2.36-.88-3.46Z"/><path class="cls-44_family-2-69 targetColor" d="M173.28,269.02s9.76,29.62,18.17,34.36c8.42,4.74,13.8,3.7,13.8,3.7l2.02,12.12s-21.01,6.61-26.59,0-7.4-50.18-7.4-50.18Z" style="fill: rgb(104, 173, 253);"/><path class="cls-7_family-2-69" d="M173.28,269.02s9.76,29.62,18.17,34.36c8.42,4.74,13.8,3.7,13.8,3.7l2.02,12.12s-21.01,6.61-26.59,0-7.4-50.18-7.4-50.18Z"/><path class="cls-44_family-2-69 targetColor" d="M134.7,278.19c-2.86,7.62-3.33,15.9-3.37,24.03-.05,9.17.57,18.77,5.25,26.66,6.57,11.09,21.26,16.61,33.52,12.6,3.58-1.18,7.09-3.2,9.13-6.39,2.6-4.05,2.46-9.23,1.97-14.01-.72-6.84-1.93-13.6-2.3-20.48-.42-7.67.24-15.48-1.5-22.98-1.73-7.49-6.58-14.93-14.02-16.89-13.51-3.55-24.14,5.19-28.68,17.45Z" style="fill: rgb(104, 173, 253);"/><path class="cls-44_family-2-69 targetColor" d="M179.49,326.58s33.82-16.66,37.87-6.56c4.04,10.1-24.75,30.8-29.76,33.32s-20.19,4.04-20.19,4.04c0,0-42.41-9.6-38.88-19.69,3.54-10.09,46.9-10.6,50.97-11.11Z" style="fill: rgb(104, 173, 253);"/><path class="cls-5_family-2-69" d="M179.49,326.92s33.82-16.66,37.87-6.56c4.04,10.1-24.75,30.8-29.76,33.32s-20.19,4.04-20.19,4.04c0,0-42.41-9.6-38.88-19.69s46.9-10.6,50.97-11.11Z"/><path class="cls-11_family-2-69" d="M148.44,268.79s-26.49,18.17-27.27,45.19c-.78,27.02,13.38,26.89,19.69,28.78s29.79-19.43,29.79-19.43l-8.59-10.86s-16.93,8.93-18.76,5.3c-4.7-9.36,5.14-48.98,5.14-48.98Z"/><path class="cls-44_family-2-69 targetColor" d="M143.39,264.98s-26.49,18.17-27.27,45.19,13.13,22.59,19.43,24.47c6.31,1.88,30.06-15.15,30.06-15.15l-8.59-10.86s-16.93,8.93-18.76,5.3c-4.73-9.33,5.12-48.96,5.12-48.96Z" style="fill: rgb(104, 173, 253);"/><path class="cls-42_family-2-69" d="M146.79,263.49c.11,2.76.84,5.68,2.9,7.52,2.6,2.3,6.52,2.21,9.89,1.43,1.31-.31,2.71-.79,3.43-1.93s.56-2.48.38-3.77c-.3-2.1-.69-4.18-1.17-6.24-.15-.87-.46-1.7-.92-2.45-.63-.81-1.46-1.45-2.41-1.85-2.43-1.21-8.3-3.41-10.9-1.7-2.1,1.35-1.29,6.94-1.2,9Z"/><path class="cls-42_family-2-69" d="M136.26,243.97c-.67.26-1.23.75-1.59,1.38-.49,1.06,0,2.3.52,3.35.39,1.04,1.06,1.96,1.93,2.65.52.3,1.08.52,1.67.63.79.22,1.61.28,2.43.17.83-.13,1.54-.67,1.88-1.43.16-.46.19-.95.09-1.43-.59-3.82-2.71-6.99-6.92-5.32Z"/><path class="cls-13_family-2-69" d="M138.43,245.68c-.34.03-.67.17-.92.39-.13.15-.23.33-.3.52-.21.45-.28.95-.2,1.43.09.38.27.73.53,1.02.73.84,1.82,1.28,2.93,1.19.18,0,.35-.06.49-.16.33-.24.31-.72.24-1.13-.14-.95-.4-1.89-.79-2.77-.34-.69-1.29-.6-1.98-.49Z"/><path class="cls-42_family-2-69" d="M174.71,236.93c.94.34,1.36,1.43,1.47,2.43.2,2.03-.45,4.05-1.8,5.57-.24.32-.57.56-.94.72-.38.14-.81.05-1.09-.25-.13-.19-.22-.42-.25-.65-.25-1.52-.91-9.12,2.61-7.81Z"/><path class="cls-42_family-2-69" d="M172.93,244.12c-.16,2.38-.4,4.75-.72,7.12-.18,1.77-.59,3.51-1.2,5.18-1.84,4.52-6.59,7.54-11.45,7.79-4.95.11-9.69-2.03-12.88-5.81-1.82-2.27-3.35-4.76-4.55-7.42-1.35-2.54-2.46-5.2-3.31-7.95-1.22-4.35-1.12-9.36,1.53-13.01.94-1.3,2.17-2.37,3.58-3.14,2.48-1.34,5.38-1.65,8.2-1.86,2.13-.25,4.28-.19,6.39.16,1.58.37,3.1.97,4.5,1.78,3.04,1.68,6.44,4.22,8.21,7.27,1.68,2.83,1.93,6.71,1.71,9.89Z"/><path class="cls-40_family-2-69" d="M166.97,214.59c-1.2-1.39-2.72-2.47-4.42-3.15-2-.64-4.16-.25-6.25-.31-1.57-.04-3.12-.34-4.69-.43-5.94-.2-11.61,2.51-15.18,7.27-3.48,4.79-4.73,10.85-3.44,16.63.53,2.29,1.36,4.51,2.45,6.59,1.55,3.2,3.72,6.06,6.38,8.42l-.32-14.89c2.17.7,4.55.4,6.48-.82,1.9-1.22,3.5-2.86,4.65-4.8.21-.32.47-.72.86-.72s.72.49.89.9c1.43,3.09,4.29,5.32,7.42,6.57,3.13,1.25,6.58,1.63,9.96,1.83.77.04,1.65.04,2.15-.54.29-.42.45-.92.45-1.43.87-8.5-1.49-15.16-7.39-21.11Z"/><path class="cls-10_family-2-69" d="M166.97,214.59c-1.2-1.39-2.72-2.47-4.42-3.15-2-.64-4.16-.25-6.25-.31-1.57-.04-3.12-.34-4.69-.43-5.94-.2-11.61,2.51-15.18,7.27-3.48,4.79-4.73,10.85-3.44,16.63.53,2.29,1.36,4.51,2.45,6.59,1.55,3.2,3.72,6.06,6.38,8.42l-.32-14.89c2.17.7,4.55.4,6.48-.82,1.9-1.22,3.5-2.86,4.65-4.8.21-.32.47-.72.86-.72s.72.49.89.9c1.43,3.09,4.29,5.32,7.42,6.57,3.13,1.25,6.58,1.63,9.96,1.83.77.04,1.65.04,2.15-.54.29-.42.45-.92.45-1.43.87-8.5-1.49-15.16-7.39-21.11Z"/><path class="cls-42_family-2-69" d="M201.24,315.67c-.1,1.1.08,2.34.94,3.02.33.23.68.41,1.06.54l3.58,1.43c.44.25.97.27,1.43.08.29-.19.42-.53.64-.79.65-.75,1.88-.6,2.76-.14.75.4,1.39.98,1.88,1.68.4.59.76,1.31,1.43,1.5.71.11,1.42-.2,1.8-.81,1.43-1.87.66-4.63-.65-6.6-2-2.97-4.97-5.17-8.4-6.2-3.73-1.16-6.16,2.8-6.47,6.29Z"/><path class="cls-42_family-2-69" d="M176,307.36c1.48,1.26,1.12,3.67.19,5.38-2.43,4.52-14.04,12.48-19.29,8.73-4.66-3.34,2.26-10.87,5.14-12.85,3.36-2.32,10.45-4.25,13.96-1.26Z"/><path class="cls-43_family-2-69" d="M284.95,331.84l19.85,23.39c.82.97,1.47,2.11,2.68,2.49,2,.62,9.21,2.04,8.9,1.19-7.24-20.37-12.79-39.13-23.5-52.56-1.15-1.43-2.46-2.93-4.23-3.49-2.91-.94-6.13,1.02-7.65,3.69-4.98,8.78-1.93,18.35,3.95,25.3Z"/><path class="cls-43_family-2-69" d="M300.93,304.45c.28-3.13,2.24-6.34,5.3-7.04,1.44-.28,2.94-.12,4.29.45,4.97,1.95,7.67,7.26,9.49,12.27,5.23,14.35,10.84,33.59,8.78,48.71-.17,1.25-5.1.72-6.36.62-.79-.06-9-18.97-12.7-27.92-3.16-7.59-9.57-18.63-8.82-27.1Z"/><path class="cls-43_family-2-69" d="M253.92,223.02c-.32-.06-.66-.06-.98,0-.48.13-.88.46-1.12.9-.23.45-.37.93-.42,1.43-.22,1.26-.02,2.55.57,3.68.61,1.14,1.83,1.83,3.12,1.77.24-.01.47-.09.67-.23.28-.3.44-.69.45-1.1.2-1.35.82-3.31.5-4.65-.29-1.23-1.7-1.65-2.78-1.8Z"/><path class="cls-12_family-2-69" d="M253.69,224.64c-.52,0-.98.32-1.17.8-.09.27-.11.56-.08.84.03.66.22,1.29.57,1.85.4.68,1.15,1.07,1.93,1.02.4,0,.71-.32.71-.72,0-.12-.03-.25-.1-.35-.28-.6-.49-1.24-.62-1.89-.04-.75-.32-1.54-1.24-1.56Z"/><path class="cls-40_family-2-69" d="M192.23,203.11c.69.2,1.4.31,2.11.31,2.54.12,5.29.18,7.38-1.26s3.01-3.99,3.79-6.38,1.65-4.95,3.66-6.44c2.15-1.59,5.29-1.82,6.77-4.02.39-.54.57-1.19.51-1.85-.19-.76-.6-1.46-1.17-2-.79-1.06-1.83-1.91-3.02-2.46-.79-.28-1.63-.41-2.47-.4-2.61-.03-5.21.09-7.8.35-2.59.24-5.23.6-7.54,1.79-2.23,1.26-4.16,3-5.64,5.1-1.43,1.74-2.52,3.74-3.21,5.89-.72,2.46-.6,5.59,1.21,7.59,1.53,1.62,3.38,2.91,5.43,3.79Z"/><path class="cls-4_family-2-69" d="M207.99,171.95c2.59.11,5.05,1.1,7.42,2.15,5.29,2.4,10.52,5.38,14.04,10.02,3.52,4.64,5.01,11.18,2.35,16.34-1.78-3.73-3.96-7.25-6.51-10.5-1.46-1.79-3.15-3.38-5.01-4.75-1.52-1.09-3.37-1.65-4.29-3.33-2.24-3.99-3.87-7.4-7.99-9.93Z"/><path class="cls-43_family-2-69" d="M274.85,258.44c-.04.44,0,.99.38,1.19.28.09.6.07.86-.08.87-.39,1.61-1.01,2.15-1.8-.63,1.29-.88,2.73-.72,4.16.06.47.22,1.02.67,1.17.38.08.78-.02,1.07-.28.76-.55,1.31-1.35,1.55-2.26-.58,1.67-.76,3.46-.54,5.22,0,.37.17.72.47.94.31.12.65.08.93-.09,1.23-.72,2.2-1.81,2.77-3.11.57-.92.85-2,.79-3.09-.14-1.07-1.09-2.1-2.15-1.96.16,0-3.04-5.73-4.57-6.01-3.01-.55-3.45,3.78-3.67,6.01Z"/></g></svg>