<svg id="_0365_cto" xmlns="http://www.w3.org/2000/svg" xmlns:xlink="http://www.w3.org/1999/xlink" viewBox="0 0 500 500" data-imageid="cto-63" imageName="CTO" class="illustrations_image" style="width: 131px;"><defs><style>.cls-1_cto-63,.cls-2_cto-63,.cls-3_cto-63,.cls-4_cto-63,.cls-5_cto-63,.cls-6_cto-63{isolation:isolate;}.cls-1_cto-63,.cls-4_cto-63,.cls-6_cto-63{font-family:AvenirNext-Regular, 'Avenir Next';font-size:13.99px;}.cls-7_cto-63{fill:url(#linear-gradient);}.cls-7_cto-63,.cls-2_cto-63,.cls-3_cto-63,.cls-8_cto-63,.cls-9_cto-63,.cls-10_cto-63,.cls-11_cto-63,.cls-12_cto-63,.cls-13_cto-63,.cls-14_cto-63,.cls-15_cto-63,.cls-16_cto-63,.cls-17_cto-63,.cls-18_cto-63,.cls-19_cto-63,.cls-20_cto-63{stroke-width:0px;}.cls-2_cto-63{opacity:.18;}.cls-2_cto-63,.cls-3_cto-63,.cls-20_cto-63{fill:#68e1fd;}.cls-3_cto-63{opacity:.52;}.cls-8_cto-63{fill:url(#linear-gradient-10-cto-63);}.cls-4_cto-63{letter-spacing:0em;}.cls-9_cto-63{fill:url(#linear-gradient-4-cto-63);}.cls-10_cto-63{fill:url(#linear-gradient-2-cto-63);}.cls-11_cto-63{fill:url(#linear-gradient-3-cto-63);}.cls-12_cto-63{fill:url(#linear-gradient-8-cto-63);}.cls-13_cto-63{fill:url(#linear-gradient-9-cto-63);}.cls-14_cto-63{fill:url(#linear-gradient-7-cto-63);}.cls-15_cto-63{fill:url(#linear-gradient-5-cto-63);}.cls-16_cto-63{fill:url(#linear-gradient-6-cto-63);}.cls-6_cto-63{letter-spacing:-.05em;}.cls-17_cto-63{fill:#c14834;}.cls-18_cto-63{fill:#fff;}.cls-19_cto-63{fill:#ffb4a3;}</style><linearGradient id="linear-gradient-cto-63" x1="229.75" y1="268.6" x2="269.28" y2="504.04" gradientUnits="userSpaceOnUse"><stop offset="0" stop-color="#231f20" stop-opacity="0"/><stop offset="1" stop-color="#231f20"/></linearGradient><linearGradient id="linear-gradient-2-cto-63" x1="246.79" y1="265.74" x2="286.32" y2="501.17" xlink:href="#linear-gradient-cto-63"/><linearGradient id="linear-gradient-3-cto-63" x1="703.92" y1="3112.67" x2="720.54" y2="3052.88" gradientTransform="translate(-471.81 3356.98) scale(1 -1)" xlink:href="#linear-gradient-cto-63"/><linearGradient id="linear-gradient-4-cto-63" x1="222.63" y1="285.62" x2="386.83" y2="670.05" xlink:href="#linear-gradient-cto-63"/><linearGradient id="linear-gradient-5-cto-63" x1="706.27" y1="3023.5" x2="758.47" y2="3027.01" gradientTransform="translate(-471.81 3356.98) scale(1 -1)" gradientUnits="userSpaceOnUse"><stop offset="0" stop-color="#000"/><stop offset=".12" stop-color="#000" stop-opacity=".75"/><stop offset="1" stop-color="#000" stop-opacity="0"/></linearGradient><linearGradient id="linear-gradient-6-cto-63" x1="770.43" y1="2973.73" x2="770.95" y2="2997.78" gradientTransform="translate(-471.8 3356.98) scale(1 -1)" xlink:href="#linear-gradient-5-cto-63"/><linearGradient id="linear-gradient-7-cto-63" x1="798.21" y1="3057.41" x2="824.47" y2="2969.04" xlink:href="#linear-gradient-5-cto-63"/><linearGradient id="linear-gradient-8-cto-63" x1="243.02" y1="447.02" x2="362.26" y2="325.83" gradientTransform="matrix(1,0,0,1,0,0)" xlink:href="#linear-gradient-5-cto-63"/><linearGradient id="linear-gradient-9-cto-63" x1="621.8" y1="3040.65" x2="606.93" y2="2945.28" gradientTransform="translate(-471 3365.8) scale(1 -1)" xlink:href="#linear-gradient-cto-63"/><linearGradient id="linear-gradient-10-cto-63" x1="732.48" y1="3010.52" x2="736.98" y2="2894.6" gradientTransform="translate(-471 3365.8) scale(1 -1)" xlink:href="#linear-gradient-cto-63"/></defs><path id="background_cto-63" class="cls-2_cto-63 targetColor" d="M54.83,386.92s-50.53-51.76-35.38-106.54c15.16-54.78,56-54.83,122.5-106.16,66.5-51.33,84-102.7,187.81-95.7,103.82,7,172.66,183.15,156.33,230.98-16.32,47.83-30.34,84-30.34,84l-400.93-6.56Z" style="fill: rgb(104, 173, 253);"/><g id="character_cto-63"><path class="cls-18_cto-63" d="M188.32,348.28s2.05-58.32,13.75-64.15c11.7-5.83,59.79-3.51,70.28-.58,10.49,2.92,18.89,44.54,21.58,51.04,4.96,11.95,23.62,18.66,23.62,18.66l-1.75,24.49-110.82-.57s-13.16-2.63-16.67-28.88Z"/><path class="cls-7_cto-63" d="M222.14,281.89c-.73,1.1-1.02,2.44-.8,3.75.39,3.66,1.89,7.11,4.31,9.89,2.42,2.75,5.33,5.02,8.59,6.69,1.03-2.54,1.86-6.99,4-7.77,2.3-.53,4.62-.93,6.95-1.21.14-.18-6.35-1.15-6.56-1.24-4.06-1-6.93-3.52-9.69-6.66-.7-.73-1.29-1.54-1.78-2.43-.56-1.15-.08-2.69-1.68-2.54-1.27.05-2.47.59-3.33,1.52Z"/><path class="cls-10_cto-63" d="M254.84,297.16c.33.39.82.82,1.28.61.16-.1.29-.24.38-.4,1.04-1.74,1.39-3.81.96-5.8-.42-1.97-1.16-3.86-2.18-5.6-.86-1.69-1.92-3.26-3.17-4.67-.6-.63-1.6-1.24-2.29-.68-.27.27-.44.62-.5,1-.52,2.03-5.36,9.78-4.15,11.62.47.72,5.52.26,6.37.84,1.23.88,2.34,1.92,3.3,3.09Z"/><path class="cls-17_cto-63" d="M261.21,239.91c-.23-3.15-6.63-4.53-7.65-6.87l9.73-.39s1.15,12.8-3.44,19.05l-1-2.43c1.2-5.96,2.88-2.03,2.36-9.36Z"/><path class="cls-19_cto-63" d="M230.23,261.19l-3.57,21.84s8.02,11.75,18.17,10,6.42-6.71,6.42-6.71l-1.24-18.52s-8.03,1.91-19.77-6.6Z"/><path class="cls-11_cto-63" d="M228.97,268.86l1.26-7.66c11.74,8.51,17.81,4.89,17.81,4.89l2.84,9.91c-1.72,1.68.38,7.77-6.43,7.08-5.61-.55-10.92-8.18-15.49-14.22Z"/><path class="cls-19_cto-63" d="M221.05,245.34c.86,12.12,13.28,33.52,25.4,32.65s15.61-25.91,14.76-38.03-7.66-19.02-19.82-18.16c-12.11.88-21.21,11.41-20.34,23.52,0,0,0,.02,0,.03Z"/><path class="cls-17_cto-63" d="M231.08,222.1c.74-.19.97-.78,1.9-1.57,3.61-3.09,8.7-3.69,13.25-3.2,11.39,1.25,14.01,9.28,17.01,8.02,3-1.26,8.47,3.51,4.74,8.91-3.72,5.41-9.78,6.87-17.18,3.28-4.74-2.29-11.31-4.11-16.58-2.78-.85.1-1.61.55-2.11,1.24-.73,1.44-.38,4.27-.33,5.85.19,3.86.67,7.71,1.41,11.5-.61.06-1.05-.54-1.33-1.09-.68-1.31-1.15-2.72-1.76-4.03-.73-1.49-2.1-3.85-3.98-2.63-.95.73-1.57,1.81-1.71,3-.54,2.59-.13,6.31,2.03,8.13,1.73,1.45,2.23,4.22,2.65,6.31.14.66.81,2.41.56,3.01-.46,1.08-2.04.96-2.85.31-.91-.94-1.5-2.14-1.68-3.44-1.56-6.14-3.81-12.09-6.71-17.72-.73-1.28-1.33-2.62-1.8-4.01-.73-3.11-.5-6.37.65-9.35.86-3.09,2.58-5.87,4.96-8.02,2.68-2.17,4.96-1.84,8.02-1.7.28.03.56.02.84-.03Z"/><path class="cls-9_cto-63" d="M235.86,375.99l1.75-22.75-18.66-2.62-5.84-31.79s21.58,19.83,39.73,19.3c18.15-.53,20.41-7.58,20.41-7.58l3.44,44.92-40.83.53Z"/><path class="cls-15_cto-63" d="M239.4,294.06l2.43,4.09,3.6,3.21,6.42,70,12.44-.39-15.45-70.39,1.84-6.87s-7.78-1-11.27.36Z"/><path class="cls-19_cto-63" d="M233.72,361.6s15.56-12.44,21-10.89c5.44,1.55,11.28,7.39,11.67,9.34s-2.29,5.05-5.45,5.44-6.61,3.12-8.55,2.29-6.61,0-8.56,2.29c-1.95,2.29-10.89,5.44-10.89,5.44,0,0-5.83-8.08.78-13.91Z"/><path class="cls-20_cto-63 targetColor" d="M355.61,377.83h-113.48c-3.18,0-5.76-2.58-5.76-5.76h0c0-3.18,2.58-5.76,5.76-5.76h113.48c3.18,0,5.76,2.58,5.76,5.76h0c0,3.18-2.58,5.76-5.76,5.76Z" style="fill: rgb(104, 173, 253);"/><path class="cls-16_cto-63" d="M355.61,377.83h-113.48c-3.18,0-5.76-2.58-5.76-5.76h0c0-3.18,2.58-5.76,5.76-5.76h113.48c3.18,0,5.76,2.58,5.76,5.76h0c0,3.18-2.58,5.76-5.76,5.76Z"/><path class="cls-20_cto-63 targetColor" d="M286.06,366.77l1.89,6.12,80.59,4.94,22.97-58.25c1.04-2.63-.25-5.6-2.88-6.64-.6-.23-1.23-.36-1.87-.36h-68.34c-6.77,0-12.86,4.15-15.34,10.45l-17.02,43.75Z" style="fill: rgb(104, 173, 253);"/><path class="cls-14_cto-63" d="M286.06,366.77l1.89,6.12,80.59,4.94,22.97-58.25c1.04-2.63-.25-5.6-2.88-6.64-.6-.23-1.23-.36-1.87-.36h-68.34c-6.77,0-12.86,4.15-15.34,10.45l-17.02,43.75Z"/><path class="cls-20_cto-63 targetColor" d="M285.89,377.9h82.72l21.77-55.33c.99-2.49-.24-5.32-2.73-6.3-.57-.22-1.17-.34-1.78-.34h-64.88c-6.43,0-12.21,3.93-14.57,9.92l-20.53,52.06Z" style="fill: rgb(104, 173, 253);"/><path class="cls-12_cto-63" d="M285.89,377.9h82.72l21.77-55.33c.99-2.49-.24-5.32-2.73-6.3-.57-.22-1.17-.34-1.78-.34h-64.88c-6.43,0-12.21,3.93-14.57,9.92l-20.53,52.06Z"/></g><g id="table_cto-63"><rect class="cls-20_cto-63 targetColor" x="46" y="377.6" width="437.12" height="9.34" style="fill: rgb(104, 173, 253);"/><polygon class="cls-20_cto-63 targetColor" points="189.79 377.54 90.04 377.54 94.71 354.2 186.87 354.2 189.79 377.54" style="fill: rgb(104, 173, 253);"/><polygon class="cls-13_cto-63" points="189.59 377.54 95.68 377.54 100.07 354.2 186.84 354.2 189.59 377.54"/><g class="cls-5_cto-63"><text class="cls-4_cto-63" transform="translate(119.79 370.39)"><tspan x="0" y="0">C</tspan></text><text class="cls-6_cto-63" transform="translate(129.77 370.39)"><tspan x="0" y="0">T</tspan></text><text class="cls-1_cto-63" transform="translate(137.33 370.39)"><tspan x="0" y="0">O</tspan></text></g><rect class="cls-20_cto-63 targetColor" x="54.85" y="386.93" width="416.48" height="80.49" style="fill: rgb(104, 173, 253);"/><rect class="cls-8_cto-63" x="54.85" y="386.93" width="416.48" height="19.25"/></g><g id="data_graphic_cto-63"><rect class="cls-18_cto-63" x="22.32" y="137.82" width="189.29" height="134.08" rx="7.57" ry="7.57"/><rect class="cls-3_cto-63 targetColor" x="22.32" y="137.82" width="189.29" height="134.08" rx="7.57" ry="7.57" style="fill: rgb(104, 173, 253);"/><polygon class="cls-18_cto-63" points="28.59 252.94 27.29 251.31 67.29 219.72 103.94 231.11 143.21 193.55 174.18 198.06 201.37 166.75 202.94 168.12 175.01 200.28 143.92 195.77 104.49 233.47 67.71 222.05 28.59 252.94"/><path class="cls-20_cto-63 targetColor" d="M109.73,231.59c.39,3.05-1.77,5.84-4.82,6.22-3.05.39-5.84-1.77-6.22-4.82-.39-3.05,1.77-5.84,4.82-6.22,0,0,0,0,0,0,3.05-.38,5.83,1.77,6.22,4.82Z" style="fill: rgb(104, 173, 253);"/><path class="cls-20_cto-63 targetColor" d="M72.91,220.67c.38,3.05-1.78,5.83-4.84,6.21-3.05.38-5.83-1.78-6.21-4.84-.38-3.05,1.78-5.83,4.83-6.21,3.05-.38,5.83,1.78,6.22,4.83Z" style="fill: rgb(104, 173, 253);"/><path class="cls-18_cto-63" d="M105.06,238.85c-3.63.47-6.94-2.1-7.41-5.73-.47-3.63,2.1-6.95,5.73-7.41,3.63-.47,6.94,2.1,7.41,5.73,0,0,0,.01,0,.02.45,3.62-2.11,6.92-5.73,7.39ZM103.66,227.8c-2.51.28-4.32,2.55-4.04,5.07.28,2.51,2.55,4.32,5.07,4.04,2.51-.28,4.32-2.55,4.04-5.07,0-.04,0-.07-.01-.11-.34-2.47-2.6-4.22-5.08-3.93h.02Z"/><path class="cls-20_cto-63 targetColor" d="M149.04,194.31c.39,3.05-1.77,5.84-4.82,6.22-3.05.39-5.84-1.77-6.22-4.82-.39-3.05,1.77-5.84,4.82-6.22,0,0,0,0,0,0,3.04-.39,5.83,1.76,6.22,4.8,0,0,0,.01,0,.02Z" style="fill: rgb(104, 173, 253);"/><path class="cls-18_cto-63" d="M144.34,201.57c-3.63.47-6.94-2.1-7.41-5.73-.47-3.63,2.1-6.94,5.73-7.41,3.63-.47,6.94,2.1,7.41,5.73,0,0,0,.01,0,.02.45,3.62-2.11,6.92-5.73,7.39ZM142.96,190.52c-2.51.28-4.32,2.55-4.04,5.07.28,2.51,2.55,4.32,5.07,4.04,2.51-.28,4.32-2.55,4.04-5.07,0-.04,0-.07-.01-.11-.31-2.48-2.57-4.24-5.05-3.93,0,0,0,0,0,0Z"/><path class="cls-20_cto-63 targetColor" d="M179.83,198.27c.38,3.05-1.78,5.83-4.84,6.21-3.05.38-5.83-1.78-6.21-4.84-.38-3.05,1.78-5.83,4.83-6.21,3.05-.37,5.83,1.79,6.22,4.83Z" style="fill: rgb(104, 173, 253);"/><path class="cls-18_cto-63" d="M175.14,205.53c-3.62.46-6.93-2.11-7.39-5.73-.46-3.62,2.11-6.93,5.73-7.39,3.62-.46,6.93,2.11,7.39,5.73.45,3.62-2.11,6.92-5.73,7.39ZM173.79,194.48c-2.48.31-4.24,2.57-3.93,5.05.31,2.48,2.57,4.24,5.05,3.93,2.48-.31,4.24-2.57,3.93-5.05h0c-.31-2.48-2.56-4.24-5.04-3.93,0,0,0,0-.01,0Z"/><path class="cls-18_cto-63" d="M68.25,227.96c-3.63.47-6.94-2.1-7.41-5.73-.47-3.63,2.1-6.95,5.73-7.41,3.63-.47,6.94,2.1,7.41,5.73,0,0,0,.01,0,.02.45,3.62-2.11,6.92-5.73,7.39ZM66.85,216.9c-2.51.28-4.32,2.55-4.04,5.07.28,2.51,2.55,4.32,5.07,4.04,2.51-.28,4.32-2.55,4.04-5.07,0-.04,0-.07-.01-.11-.31-2.48-2.57-4.24-5.05-3.93,0,0,0,0,0,0h0Z"/></g><g id="gear_cto-63"><path class="cls-20_cto-63 targetColor" d="M449.5,269.6c1.67-2.77,2.95-5.76,3.78-8.89l6.68-1.28.07-7.39.07-7.39-6.66-1.4c-.78-3.14-1.99-6.16-3.61-8.96l3.81-5.62-5.18-5.27-5.17-5.28-5.73,3.71c-2.77-1.67-5.76-2.93-8.88-3.77l-1.28-6.68-7.39-.08-7.39-.07-1.39,6.61c-3.14.79-6.15,2-8.96,3.61l-5.62-3.81-5.27,5.18-5.27,5.18,3.71,5.73c-1.67,2.77-2.95,5.76-3.78,8.89l-6.68,1.28-.07,7.39-.07,7.39,6.66,1.4c.78,3.14,1.99,6.16,3.61,8.96l-3.77,5.64,5.18,5.27,5.18,5.28,5.73-3.71c2.77,1.66,5.76,2.93,8.88,3.77l1.28,6.68,7.39.08,7.39.07,1.36-6.67c3.14-.78,6.15-1.99,8.96-3.6l5.62,3.81,5.27-5.18,5.27-5.18-3.75-5.69ZM406.73,264.35c-7.01-7.14-6.9-18.62.24-25.63,7.14-7.01,18.62-6.9,25.63.24,7.01,7.14,6.9,18.62-.24,25.63,0,0,0,0,0,0-7.14,7.01-18.6,6.91-25.61-.23h-.01s0-.01,0-.01Z" style="fill: rgb(104, 173, 253);"/><path class="cls-20_cto-63 targetColor" d="M382.81,230.27c1.11-1.85,1.96-3.84,2.51-5.92l4.44-.85v-9.84l-4.42-.94c-.52-2.09-1.33-4.09-2.41-5.96l2.54-3.75-3.44-3.52-3.44-3.51-3.79,2.46c-1.84-1.11-3.83-1.95-5.91-2.51l-.86-4.44h-9.84l-.93,4.43c-2.09.51-4.1,1.32-5.97,2.39l-3.75-2.53-3.51,3.44-3.52,3.44,2.47,3.79c-1.11,1.85-1.96,3.84-2.52,5.92l-4.44.85v9.84l4.43.94c.52,2.09,1.33,4.09,2.41,5.96l-2.54,3.75,3.44,3.52,3.44,3.51,3.79-2.47c1.84,1.12,3.83,1.96,5.91,2.52l.86,4.44h9.83l.94-4.43c2.09-.52,4.1-1.32,5.97-2.39l3.73,2.53,3.52-3.44,3.51-3.44-2.46-3.79ZM354.33,226.83c-4.67-4.75-4.6-12.39.16-17.06s12.39-4.6,17.06.16c4.67,4.75,4.6,12.39-.16,17.06,0,0,0,0,0,0-4.77,4.65-12.41,4.55-17.06-.22v.06Z" style="fill: rgb(104, 173, 253);"/></g></svg>