<svg id="_0410_breakfast" xmlns="http://www.w3.org/2000/svg" xmlns:xlink="http://www.w3.org/1999/xlink" viewBox="0 0 500 500" data-imageid="breakfast-7" imageName="Breakfast" class="illustrations_image" style="width: 131px;"><defs><style>.cls-1_breakfast-7{fill:url(#linear-gradient);}.cls-1_breakfast-7,.cls-2_breakfast-7,.cls-3_breakfast-7,.cls-4_breakfast-7,.cls-5_breakfast-7,.cls-6_breakfast-7,.cls-7_breakfast-7,.cls-8_breakfast-7,.cls-9_breakfast-7,.cls-10_breakfast-7,.cls-11_breakfast-7,.cls-12_breakfast-7,.cls-13_breakfast-7,.cls-14_breakfast-7,.cls-15_breakfast-7,.cls-16_breakfast-7{stroke-width:0px;}.cls-2_breakfast-7{opacity:.18;}.cls-2_breakfast-7,.cls-5_breakfast-7{isolation:isolate;}.cls-2_breakfast-7,.cls-16_breakfast-7{fill:#68e1fd;}.cls-3_breakfast-7{fill:url(#linear-gradient-11-breakfast-7);}.cls-4_breakfast-7{fill:url(#linear-gradient-10-breakfast-7);}.cls-5_breakfast-7{opacity:.26;}.cls-5_breakfast-7,.cls-15_breakfast-7{fill:#fff;}.cls-6_breakfast-7{fill:url(#linear-gradient-4-breakfast-7);}.cls-7_breakfast-7{fill:url(#linear-gradient-2-breakfast-7);}.cls-8_breakfast-7{fill:url(#linear-gradient-3-breakfast-7);}.cls-9_breakfast-7{fill:url(#linear-gradient-8-breakfast-7);}.cls-10_breakfast-7{fill:url(#linear-gradient-9-breakfast-7);}.cls-11_breakfast-7{fill:url(#linear-gradient-7-breakfast-7);}.cls-12_breakfast-7{fill:url(#linear-gradient-5-breakfast-7);}.cls-13_breakfast-7{fill:url(#linear-gradient-6-breakfast-7);}.cls-14_breakfast-7{fill:#3c3e54;}</style><linearGradient id="linear-gradient-breakfast-7" x1="112.55" y1="310.38" x2="192.69" y2="570.36" gradientUnits="userSpaceOnUse"><stop offset="0" stop-color="#231f20" stop-opacity="0"/><stop offset="1" stop-color="#231f20"/></linearGradient><linearGradient id="linear-gradient-2-breakfast-7" x1="114.19" y1="155.93" x2="171.86" y2="994.52" xlink:href="#linear-gradient-breakfast-7"/><linearGradient id="linear-gradient-3-breakfast-7" x1="541.67" y1="2038.34" x2="734.03" y2="2057.21" gradientTransform="translate(-493.07 2313.06) scale(1 -1)" xlink:href="#linear-gradient-breakfast-7"/><linearGradient id="linear-gradient-4-breakfast-7" x1="588.45" y1="2059.52" x2="637.67" y2="2059.52" gradientTransform="translate(-493.07 2313.06) scale(1 -1)" xlink:href="#linear-gradient-breakfast-7"/><linearGradient id="linear-gradient-5-breakfast-7" x1="551.32" y1="2044.46" x2="597.85" y2="2044.46" gradientTransform="translate(-493.07 2313.06) scale(1 -1)" xlink:href="#linear-gradient-breakfast-7"/><linearGradient id="linear-gradient-6-breakfast-7" x1="253" y1="146.39" x2="310.67" y2="984.97" xlink:href="#linear-gradient-breakfast-7"/><linearGradient id="linear-gradient-7-breakfast-7" x1="665.09" y1="2139.57" x2="690.37" y2="2108.05" gradientTransform="translate(-493.07 2313.06) scale(1 -1)" gradientUnits="userSpaceOnUse"><stop offset=".27" stop-color="#fff" stop-opacity="0"/><stop offset=".85" stop-color="#3c3e54"/></linearGradient><linearGradient id="linear-gradient-8-breakfast-7" x1="654.35" y1="2110.07" x2="729.02" y2="2122.55" xlink:href="#linear-gradient-7-breakfast-7"/><linearGradient id="linear-gradient-9-breakfast-7" x1="709.62" y1="2099.64" x2="657.54" y2="2114.81" xlink:href="#linear-gradient-7-breakfast-7"/><linearGradient id="linear-gradient-10-breakfast-7" x1="729.43" y1="2146.65" x2="758.2" y2="2131.03" xlink:href="#linear-gradient-7-breakfast-7"/><linearGradient id="linear-gradient-11-breakfast-7" x1="400.3" y1="136.26" x2="457.97" y2="974.84" xlink:href="#linear-gradient-breakfast-7"/></defs><path id="background_breakfast-7" class="cls-2_breakfast-7 targetColor" d="M482.48,273.13c-.33,14.69-3.98,29.47-8.71,43.49-5.16,15.22-11.69,30.14-21.21,43.04-57.93,78.22-183.14,67.62-267.99,65.88-21.84-.44-44.1-1.48-64.65-8.72-1.05-.36-2.08-.76-3.12-1.17-16.67-6.48-31.46-17.09-44.55-29.25l-.6-.56c-53.25-50.12-81.46-121.98-47.13-191.62,19.32-39.17,53.62-69.58,92.24-89.87,16.92-8.88,34.82-16.03,50.81-26.52,12.29-8.03,23.28-17.93,35.4-26.24,42.57-29.17,99.03-37.19,148.03-20.88,5.68,1.78,11.16,4.16,16.35,7.08,20.06,11.67,31.17,34.21,37.88,56.37,6.71,22.17,10.22,45.56,20.42,66.37,15.91,32.38,47.13,57.17,54.94,92.36,1.44,6.64,2.08,13.44,1.9,20.23Z" style="fill: rgb(104, 173, 253);"/><g id="fork_knife_breakfast-7"><path class="cls-1_breakfast-7" d="M97.4,351.75c7.65,1.76,20.44,7.48,28.25,8.39l72.92,8.58c-8.64-12.37-17.4-24.67-26.28-36.88-1.25-1.96-2.83-3.68-4.67-5.1-1.74-1.06-3.63-1.85-5.61-2.33-17.24-5.09-34.6-9.94-52.38-12.73-9.4-1.62-18.94-2.26-28.47-1.9-6.96.4-18.47,1.02-21.82,7.82-2.57,5.21-4.85,10.45-7.88,15.42,14.2,9.45,29.18,14.89,45.93,18.73Z"/><polygon class="cls-16_breakfast-7 targetColor" points="144.85 220.98 122.1 163.98 52.13 321.79 202 364.36 144.85 220.98" style="fill: rgb(104, 173, 253);"/><polygon class="cls-7_breakfast-7" points="144.85 220.98 122.1 163.98 52.13 321.79 202 364.36 144.85 220.98"/><path class="cls-8_breakfast-7" d="M138.82,205.91l7.13,17.9,39.44,97.45s-28.24-11-46.58-59.41c-6.65-18.05-6.65-37.88,0-55.94Z"/><path class="cls-6_breakfast-7" d="M144.6,309.8l-46.51-118.82s-4.56,4.72-1.86,22.08c2.7,17.36,17.53,43.82,18.03,44.16s2.86,8.94,2.86,8.94c0,0,15.34,47.58,18.26,48.92,2.92,1.34,9.21,2.7,9.21-5.28Z"/><path class="cls-12_breakfast-7" d="M58.25,217.4s3.21,24.78,7.76,30.84c4.55,6.06,7.08,5.9,7.08,5.9,0,0,5.4,9.44,7.08,16.52,1.68,7.08,8.76,49.89,12.81,51.57s11.46,2.03,11.8-1.68c.34-3.71-22.09-52.08-22.09-52.08,0,0-5.56-14.66-4.55-17.02,1.01-2.36,1.94-9.94.76-13.26-1.18-3.31-9.28-24.44-9.28-24.44,0,0,6.31,23.43,5.4,24.1-.51.39-1.2.45-1.78.16l-7.65-22.98,5.3,24.28-1.01.16-7.16-23.68,4.63,24.95-1.84.42-7.25-23.77Z"/><path class="cls-15_breakfast-7" d="M146.63,308.82l-46.52-118.82s-4.56,4.72-1.91,22.08c2.65,17.36,17.53,43.75,18.03,44.16.5.41,2.88,8.92,2.88,8.92,0,0,15.33,47.6,18.26,48.94,2.93,1.34,9.27,2.7,9.27-5.28Z"/><path class="cls-15_breakfast-7" d="M60.28,216.42s3.2,24.78,7.74,30.84c4.55,6.06,7.08,5.9,7.08,5.9,0,0,5.4,9.44,7.08,16.52,1.68,7.08,8.76,49.89,12.81,51.57s11.47,2.03,11.8-1.68c.33-3.71-22.08-52.08-22.08-52.08,0,0-5.57-14.66-4.55-17.02,1.02-2.36,1.94-9.94.76-13.26s-9.36-24.44-9.36-24.44c0,0,6.32,23.43,5.4,24.09-.5.4-1.19.47-1.76.17l-7.58-23,5.3,24.28-1.01.16-7.17-23.68,4.64,24.95-1.86.41-7.24-23.73Z"/><path class="cls-5_breakfast-7" d="M195.43,356.89c-5.3.8-10.96,1.55-15.91-.69-2.19-.99-4.08-2.53-6.27-3.5-4.53-1.96-9.73-1.22-14.58-1.78-11.06-1.33-20.21-9.11-30.83-12.42-4.84-1.3-9.77-2.25-14.74-2.86-17.95-2.96-35.31-9.45-53.46-10.81,1.24-4.7,3.5-9.07,6.63-12.79,1.71-2.04,3.67-3.87,5.4-5.91,3.74-4.47,6.23-9.84,8.67-15.13.98,11,4.14,21.69,9.28,31.46,4.15-1.09,8.5.21,12.71,1.06,8,1.6,16.24,1.55,24.21-.16-.63-1.67-.35-3.54.76-4.95,9.28,5.53,19.92,8.35,30.72,8.14,1.24.08,2.47-.21,3.54-.84,1.46-1.05,1.86-3.1,3.22-4.27,1.78-1.54,4.49-1.03,6.72-.28,7.19,2.43,10.86,4.68,13.67,11.43,3.37,8.17,7.01,16.14,10.26,24.29Z"/></g><g id="omelette_breakfast-7"><circle class="cls-13_breakfast-7" cx="259.46" cy="240.3" r="101.13"/><circle class="cls-15_breakfast-7" cx="245.98" cy="240.3" r="101.13"/><path class="cls-16_breakfast-7 targetColor" d="M162.55,195.61c-.16.08-.3.21-.4.36-.07.2-.07.42,0,.62.34,1.33.7,2.65,1.1,3.98.9-.15,1.74-.54,2.43-1.13,3.75-2.34,7.69-4.36,11.77-6.06,8.62-3.98,16.92-8.75,25.85-11.93l-.3-7.33c-2.41,2.65-5.91,4.07-9.28,5.3l-5.3,2.03c-1.66.62-3.04,1.62-4.61,2.35-1.58.73-2.88,1.33-4.3,2.08-3.67,1.98-7.31,4.02-10.94,6.13-2.01,1.18-4.01,2.39-6.02,3.61Z" style="fill: rgb(104, 173, 253);"/><path class="cls-16_breakfast-7 targetColor" d="M165.35,206.84c-.14.12-.23.29-.28.46,0,.21.06.42.19.6.7,1.18,1.43,2.35,2.19,3.49.81-.4,1.51-1.01,2-1.76,2.93-3.31,6.13-6.37,9.55-9.17,7.12-6.3,13.72-13.26,21.37-18.84l-2.39-6.93c-1.54,3.26-4.51,5.58-7.37,7.78l-4.52,3.46c-1.41,1.07-2.44,2.43-3.75,3.58-1.31,1.15-2.39,2.07-3.51,3.21-2.97,2.94-5.87,5.95-8.74,8.99-1.62,1.7-3.17,3.42-4.73,5.14Z" style="fill: rgb(104, 173, 253);"/><path class="cls-11_breakfast-7" d="M162.55,195.61c-.16.08-.3.21-.4.36-.07.2-.07.42,0,.62.34,1.33.7,2.65,1.1,3.98.9-.15,1.74-.54,2.43-1.13,3.75-2.34,7.69-4.36,11.77-6.06,8.62-3.98,16.92-8.75,25.85-11.93l-.3-7.33c-2.41,2.65-5.91,4.07-9.28,5.3l-5.3,2.03c-1.66.62-3.04,1.62-4.61,2.35-1.58.73-2.88,1.33-4.3,2.08-3.67,1.98-7.31,4.02-10.94,6.13-2.01,1.18-4.01,2.39-6.02,3.61Z"/><circle class="cls-2_breakfast-7 targetColor" cx="241.92" cy="240.3" r="54.61" style="fill: rgb(104, 173, 253);"/><circle class="cls-15_breakfast-7" cx="247.65" cy="240.3" r="54.61"/><path class="cls-2_breakfast-7 targetColor" d="M202,292.39c16.68-3.34,34-.57,48.8,7.81,3.43,2.18,6.97,4.19,10.61,6.01,10.82,4.77,23.44,3.21,34.64-.52,4.51-1.5,9.03-3.42,12.34-6.8,7.56-7.73,6.56-20.11,5.06-30.8-15.02,9.89-32.34,16.84-50.38,17.63-12.64.56-26.08-1.76-37.4,3.87" style="fill: rgb(104, 173, 253);"/><path class="cls-2_breakfast-7 targetColor" d="M250.58,169.49c-5.89-.09-11.54,2.35-15.51,6.71-16.02,15.41-18.87,41.8-36.78,54.9-4.76,3.47-10.26,5.73-15.35,8.68-5.09,2.96-9.96,6.88-12.17,12.33-1.78,4.85-1.75,10.18.08,15.01,1.85,4.78,4.55,9.2,7.96,13.03,1.92,2.58,4.41,4.68,7.27,6.14,3.03,1.07,6.25,1.53,9.45,1.33,6.85.07,13.72.13,20.55-.4,6.02-.45,12.01-1.33,18.04-1.22,11.56.28,22.66,4.38,34.09,6.1,11.43,1.72,24.42.46,32.36-7.96,4.72-5.01,6.96-11.84,8.59-18.56,1.82-7.44,3.08-15.15,1.99-22.74-1.75-12.32-9.39-22.88-13.89-34.47-3.41-8.79-5.75-17.1-12.42-24.14-5.38-5.57-11.97-9.83-19.25-12.46-4.82-1.66-9.9-2.44-15-2.28Z" style="fill: rgb(104, 173, 253);"/><path class="cls-15_breakfast-7" d="M255.59,173.7c-5.9-.09-11.55,2.36-15.51,6.72-16.02,15.39-18.83,41.8-36.78,54.89-4.75,3.47-10.26,5.73-15.35,8.7-5.09,2.97-9.96,6.88-12.17,12.33-1.78,4.85-1.75,10.17.08,15,1.85,4.78,4.55,9.2,7.96,13.03,1.92,2.58,4.41,4.68,7.27,6.15,3.03,1.07,6.25,1.52,9.45,1.33,6.85,0,13.72.12,20.55-.4,6.02-.46,12.03-1.33,18.04-1.23,11.56.28,22.66,4.39,34.09,6.1,11.43,1.71,24.42.48,32.36-7.96,4.72-5.01,6.96-11.84,8.59-18.56,1.82-7.44,3.08-15.17,1.99-22.75-1.75-12.3-9.39-22.87-13.88-34.47-3.42-8.8-5.77-17.12-12.44-24.14-5.37-5.58-11.96-9.85-19.25-12.46-4.82-1.66-9.9-2.43-15-2.27Z"/><path class="cls-16_breakfast-7 targetColor" d="M281.87,297.63c-2.94-.01-5.87-.24-8.78-.68-4.43-.66-8.87-1.7-13.15-2.65-6.79-1.58-13.82-3.22-20.86-3.39-4.2,0-8.39.23-12.56.73-1.8.19-3.62.36-5.42.5-6.87.52-13.85.45-20.62.4-3.29.18-6.58-.3-9.68-1.42-2.95-1.5-5.51-3.66-7.48-6.31-3.47-3.89-6.19-8.38-8.03-13.26-1.9-4.96-1.92-10.44-.08-15.42,1.94-4.76,5.99-8.88,12.44-12.64,1.86-1.07,3.81-2.08,5.69-3.05,3.34-1.62,6.54-3.49,9.6-5.6,9.55-6.96,14.89-18,20.06-28.68,4.51-9.28,9.19-18.99,16.67-26.17,4.08-4.45,9.87-6.96,15.91-6.88h0c5.16-.12,10.31.69,15.18,2.41,7.38,2.65,14.04,6.97,19.48,12.62,5.71,6.01,8.29,12.93,11.02,20.25.5,1.33,1.01,2.65,1.55,4.08,1.56,4.04,3.55,8.03,5.48,11.93,3.58,7.2,7.29,14.58,8.45,22.72,1.15,8.14-.45,16.63-2,22.98-1.55,6.35-3.81,13.56-8.74,18.79-6.63,6.95-16.18,8.72-24.12,8.72ZM237.82,289.67h1.33c7.17.17,14.25,1.83,21.09,3.42,4.27.99,8.68,2.03,13.06,2.65,8.02,1.19,22.83,1.79,31.82-7.76,4.75-5.02,6.93-12.05,8.45-18.26,1.51-6.2,3.13-14.45,1.98-22.54-1.15-8.09-4.79-15.23-8.33-22.34-1.94-3.88-3.98-7.96-5.53-11.93-.53-1.33-1.05-2.74-1.55-4.11-2.65-7.2-5.21-14-10.75-19.89-5.31-5.51-11.81-9.73-19.01-12.32-4.73-1.68-9.74-2.47-14.76-2.33h0c-2.25,0-4.48.34-6.63.99-3.21,1.19-6.12,3.08-8.51,5.54-7.33,7.04-11.93,16.6-16.43,25.83-5.24,10.82-10.61,22-20.42,29.17-3.11,2.14-6.37,4.04-9.77,5.69-1.87.97-3.79,1.96-5.63,3.04-6.19,3.59-10.09,7.53-11.93,12.04-1.74,4.71-1.7,9.89.09,14.58,1.8,4.72,4.45,9.08,7.82,12.85,1.87,2.5,4.28,4.55,7.05,5.98,2.95,1.05,6.08,1.5,9.2,1.33,6.74.07,13.7.13,20.51-.38,1.8-.15,3.59-.32,5.4-.49,3.78-.4,7.62-.78,11.46-.78v.03Z" style="fill: rgb(104, 173, 253);"/><circle class="cls-16_breakfast-7 targetColor" cx="257.54" cy="243.46" r="22.47" style="fill: rgb(104, 173, 253);"/><path class="cls-5_breakfast-7" d="M247.58,244c-.46,3.11-.46,6.27,0,9.39.16,1.33.17,3.13-1.07,3.75-1.03.32-2.15.12-3.02-.52-2.5-.75-4.27-2.97-4.44-5.57-.37-2.06-.72-4.12-1.05-6.19-.4-1.82-.4-3.71,0-5.53.62-1.67,1.59-3.18,2.86-4.43,1.54-1.83,3.32-3.44,5.3-4.77,1.33-.81,3-1.42,4.34-.65,1.96,1.13,1.92,4.45,1.06,6.24-1.41,2.92-3.37,4.92-3.98,8.27Z"/><path class="cls-5_breakfast-7" d="M257.59,227.36c-1.1.57-1.93,1.57-2.29,2.76-.25,1.06-.17,2.17.24,3.18.2.6.53,1.14.97,1.6.58.55,1.32.89,2.11.99,2.14.29,4.25-.71,5.38-2.55.9-1.51,1.14-4.34-.2-5.71-1.34-1.38-4.57-1.15-6.2-.28Z"/><path class="cls-16_breakfast-7 targetColor" d="M199.23,168.78c.27,1.33,2.49,2,2.08,3.31-.15.36-.41.67-.74.89-10.61,8.58-16.68,21.33-22.35,33.7-1.21,3.04-2.89,5.88-4.99,8.39-1.54-.64-2.85-1.72-3.78-3.1,2.31-3.25,3.12-7.19,4.72-10.78,1.33-2.98,3.53-5.4,4.73-8.45,2.65-6.52,5.38-12.28,10.61-17.24.73-.74,9.69-6.93,9.72-6.74Z" style="fill: rgb(104, 173, 253);"/><path class="cls-16_breakfast-7 targetColor" d="M208.55,177.87c0,1.33,2.04,2.45,1.33,3.66-.23.33-.54.58-.91.73-12.04,6.31-20.55,17.62-28.56,28.61-1.79,2.75-4,5.19-6.55,7.25-1.39-.93-2.46-2.25-3.09-3.79,2.9-2.65,4.48-6.43,6.75-9.64,1.9-2.65,4.53-4.59,6.31-7.33,3.83-5.89,7.7-10.98,13.76-14.78.95-.53,10.96-4.88,10.96-4.71Z" style="fill: rgb(104, 173, 253);"/><path class="cls-9_breakfast-7" d="M208.55,177.87c0,1.33,2.04,2.45,1.33,3.66-.23.33-.54.58-.91.73-12.04,6.31-20.55,17.62-28.56,28.61-1.79,2.75-4,5.19-6.55,7.25-1.39-.93-2.46-2.25-3.09-3.79,2.9-2.65,4.48-6.43,6.75-9.64,1.9-2.65,4.53-4.59,6.31-7.33,3.83-5.89,7.7-10.98,13.76-14.78.95-.53,10.96-4.88,10.96-4.71Z"/><path class="cls-16_breakfast-7 targetColor" d="M192.08,206.72c3.05-3.86,6.44-7.41,9.84-10.96,2.12-2.35,4.44-4.51,6.92-6.47,2.65-1.99,5.71-3.47,8.38-5.49l1.33,2.53c.14.21.21.45.19.7-.1.24-.28.44-.5.56-4.35,3.04-6.55,8.23-9.8,12.42-3.57,4.6-8.43,7.96-12.52,12.17-6.24,6.36-10.67,14.49-17.74,19.89-.81-1.85-1.93-3.55-3.31-5.02,3.29-2.06,6.07-5.77,8.53-8.8,3.09-3.69,5.71-7.73,8.7-11.52Z" style="fill: rgb(104, 173, 253);"/><path class="cls-10_breakfast-7" d="M192.08,206.72c3.05-3.86,6.44-7.41,9.84-10.96,2.12-2.35,4.44-4.51,6.92-6.47,2.65-1.99,5.71-3.47,8.38-5.49l1.33,2.53c.14.21.21.45.19.7-.1.24-.28.44-.5.56-4.35,3.04-6.55,8.23-9.8,12.42-3.57,4.6-8.43,7.96-12.52,12.17-6.24,6.36-10.67,14.49-17.74,19.89-.81-1.85-1.93-3.55-3.31-5.02,3.29-2.06,6.07-5.77,8.53-8.8,3.09-3.69,5.71-7.73,8.7-11.52Z"/><path class="cls-16_breakfast-7 targetColor" d="M209.44,174.67c.28,1.33,2.51,1.96,2.12,3.27-.15.37-.41.68-.74.9-10.45,8.72-16.37,21.57-21.89,34.01-1.17,3.06-2.81,5.91-4.87,8.46-1.55-.61-2.88-1.68-3.82-3.05,2.27-3.27,3.02-7.24,4.57-10.85,1.33-3,3.45-5.45,4.61-8.5,2.51-6.56,5.21-12.36,10.33-17.36.77-.76,9.64-7.07,9.68-6.89Z" style="fill: rgb(104, 173, 253);"/><path class="cls-16_breakfast-7 targetColor" d="M242.97,153.7c-4.73-.88-9.72-1.6-14.27,0-4.55,1.7-8.12,5.32-9.73,9.9-1.56,4.57-1.45,9.55.3,14.05.76,2.38,2.35,4.41,4.48,5.71,2.13.97,4.56,1.05,6.75.23,2.16-.82,4.21-1.93,6.09-3.29l4.51-2.98c.88-.63,1.82-1.16,2.81-1.58,1.56-.49,3.18-.74,4.81-.76,2.28-.17,4.55-.49,6.79-.95,1.9-.25,3.7-1.02,5.18-2.23,1.5-1.69,2.32-3.87,2.31-6.13.28-2.73-.29-5.47-1.63-7.86-.83-1.26-1.9-2.36-3.14-3.22-3.25-2.23-7.08-3.46-11.02-3.55-3.93-.08-7.84.45-11.6,1.58" style="fill: rgb(104, 173, 253);"/><path class="cls-4_breakfast-7" d="M242.97,153.7c-4.73-.88-9.72-1.6-14.27,0-4.55,1.7-8.12,5.32-9.73,9.9-1.56,4.57-1.45,9.55.3,14.05.76,2.38,2.35,4.41,4.48,5.71,2.13.97,4.56,1.05,6.75.23,2.16-.82,4.21-1.93,6.09-3.29l4.51-2.98c.88-.63,1.82-1.16,2.81-1.58,1.56-.49,3.18-.74,4.81-.76,2.28-.17,4.55-.49,6.79-.95,1.9-.25,3.7-1.02,5.18-2.23,1.5-1.69,2.32-3.87,2.31-6.13.28-2.73-.29-5.47-1.63-7.86-.83-1.26-1.9-2.36-3.14-3.22-3.25-2.23-7.08-3.46-11.02-3.55-3.93-.08-7.84.45-11.6,1.58"/><path class="cls-16_breakfast-7 targetColor" d="M241.39,152.87c-4.73-.88-9.72-1.6-14.27,0-4.55,1.7-8.12,5.32-9.73,9.9-1.56,4.57-1.45,9.55.32,14.05.73,2.4,2.32,4.46,4.47,5.77,2.13.97,4.56,1.05,6.75.23,2.16-.82,4.21-1.93,6.09-3.29l4.51-2.98c.88-.63,1.82-1.16,2.81-1.58,1.56-.49,3.18-.74,4.81-.76,2.28-.17,4.55-.49,6.79-.95,1.9-.25,3.7-1.02,5.18-2.23,1.5-1.69,2.32-3.87,2.31-6.13.28-2.73-.29-5.47-1.63-7.86-.83-1.26-1.89-2.36-3.13-3.22-3.26-2.23-7.09-3.46-11.03-3.55-3.93-.08-7.84.45-11.6,1.58" style="fill: rgb(104, 173, 253);"/><path class="cls-15_breakfast-7" d="M251.12,154.86c.41.05.81.16,1.18.33.62.4,1.12.94,1.46,1.59.38.64.77,1.33,1.13,1.92.35.46.46,1.06.3,1.62-.17.31-.45.54-.78.64-1.28.31-2.62.24-3.86-.2-2.08-.38-4.2-.47-6.3-.27-.63.1-1.28.05-1.9-.13-1.26-.5-1.7-2.03-1.96-3.35-.08-.31-.08-.63,0-.94.11-.27.31-.51.56-.66,2.37-1.75,7.46-1.01,10.17-.54Z"/><path class="cls-15_breakfast-7" d="M250.23,162.35c-.44.25-.33.91-.09,1.33.58.91,1.1,1.84,1.56,2.81.49,1.33.24,2.93.78,4.27.08.21.21.39.38.53.15.08.32.11.49.11.76-.04,1.47-.38,1.98-.95.48-.58.89-1.22,1.21-1.91.47-.82.79-1.72.95-2.65.28-2.08-1.06-2.78-2.78-3.26-1.18-.23-3.34-.91-4.48-.27Z"/><path class="cls-15_breakfast-7" d="M248.28,164.62c.55.28,1.04.67,1.43,1.15.28.48.46,1.01.53,1.56.19.76.27,1.54.24,2.32-.04.79-.43,1.52-1.06,1.99-.78.41-1.67.55-2.53.4l-4.59-.3c-.12,0-.23-.03-.33-.08-.1-.08-.17-.19-.21-.32-.36-.67-.59-1.41-.69-2.16-.11-1.33.6-2.56.62-3.88,0-.9-.9-2.55.09-3.17,1.6-1.02,5.28,1.75,6.5,2.49Z"/><path class="cls-15_breakfast-7" d="M237.41,168.63c-.18.91-.18,1.84,0,2.74.28.77,1.03,1.43.93,2.25s-.84,1.19-1.5,1.54l-5.3,2.78c-.4.29-.91.38-1.39.25-.2-.1-.38-.26-.5-.45-.76-1.4-1.05-3.01-.81-4.59-.1-1.2.28-2.39,1.03-3.33.3-.29.76-.62.64-1.05-1.57,1.06-2.55,2.79-2.65,4.68-.23,1.84,0,3.73,0,5.6.04.4-.09.81-.36,1.11-.21.17-.47.26-.74.28-.88.14-1.77.14-2.65,0-.24-.02-.47-.11-.66-.25-.15-.17-.25-.38-.29-.61-.96-4.07.61-8.32,3.98-10.79-1.31,0-2.58.42-3.65,1.18-.49.41-1.02.77-1.56,1.1-.56.34-1.26.34-1.82,0-.63-.64-.74-1.62-.28-2.39.47-.73.88-1.49,1.25-2.28.2-.61.2-1.33.45-1.88.26-.5.62-.95,1.05-1.33.88-.88,1.77-1.77,2.65-2.65.65-.66,1.37-1.24,2.15-1.74.84-.44,1.73-.76,2.65-.97,1.34-.35,2.69-.62,4.06-.82.2-.08.41-.08.61,0,.19.18.29.44.28.7.22,1.59-.32,3.18-1.46,4.31-.65.43-1.35.77-2.08,1.02-2.03.9-3.72,2.44-4.81,4.38l1.84.81c-.4-.73.17-1.63.8-2.2,1.37-1.24,3.08-2.04,4.91-2.31.3.19.4.59.21.89-.02.03-.04.06-.06.09-.27.28-.61.47-.98.57-1.61.6-3.07,1.53-4.28,2.74.4.56,1.14.77,1.78.5.62-.28,1.16-.69,1.59-1.21.78-.85,2.56-3.58,3.69-2.81,1.13.77,1.33,2.94,1.33,4.11Z"/><path class="cls-16_breakfast-7 targetColor" d="M225.57,299.91c-2.73,1.53-5.27,3.39-7.57,5.52-2.31,2.14-5.17,3.6-8.26,4.22,4.26-.3,8.47.99,12.73.97,4.26-.03,9.11-2,10.18-6.13,1.17.34,1.83,1.57,1.49,2.73,0,.03-.02.06-.03.09.68-1.29,1.17-2.68,1.46-4.11,1.07.05,1.98-.77,2.06-1.84,1.12.99,1.53,2.57,1.02,3.98-.53,1.38-1.18,2.71-1.95,3.98-2.76,5.49-1.33,12.07.11,18.03.73-4.59,4.93-7.78,6.8-12.03,1.55-3.57,1.38-7.64-.45-11.07-.49-.91-1.11-2-.58-2.9s2-1.46,1.54-2.35c-.78,1.46-2.96,1.14-4.52.58-2.28-.81-4.4,0-6.63-.36-2.47-.58-5.06-.34-7.38.69Z" style="fill: rgb(104, 173, 253);"/></g><g id="coffee_breakfast-7"><circle class="cls-3_breakfast-7" cx="408.66" cy="257.72" r="44.03"/><circle class="cls-15_breakfast-7" cx="400.81" cy="254.8" r="33.82"/><circle class="cls-14_breakfast-7" cx="400.81" cy="254.8" r="27.9"/><path class="cls-15_breakfast-7" d="M425.59,273.78l13.51,12.05c1.38,1.22,1.51,3.33.29,4.72-.01.01-.03.03-.04.04h0c-1.23,1.34-3.3,1.46-4.68.28l-12.87-11.16,3.79-5.93Z"/></g></svg>